<?xml version="1.0" encoding="utf-8" standalone="no"?>
<!DOCTYPE svg PUBLIC "-//W3C//DTD SVG 1.1//EN"
  "http://www.w3.org/Graphics/SVG/1.1/DTD/svg11.dtd">
<svg height="288pt" version="1.1" viewBox="0 0 432 288" width="432pt" xmlns="http://www.w3.org/2000/svg" xmlns:xlink="http://www.w3.org/1999/xlink">
 <metadata>
  <rdf:RDF xmlns:cc="http://creativecommons.org/ns#" xmlns:dc="http://purl.org/dc/elements/1.1/" xmlns:rdf="http://www.w3.org/1999/02/22-rdf-syntax-ns#">
   <cc:Work>
    <dc:type rdf:resource="http://purl.org/dc/dcmitype/StillImage"/>
    <dc:date>2021-06-22T22:08:33.135877</dc:date>
    <dc:format>image/svg+xml</dc:format>
    <dc:creator>
     <cc:Agent>
      <dc:title>Matplotlib v3.4.0, https://matplotlib.org/</dc:title>
     </cc:Agent>
    </dc:creator>
   </cc:Work>
  </rdf:RDF>
 </metadata>
 <defs>
  <style type="text/css">*{stroke-linecap:butt;stroke-linejoin:round;}</style>
 </defs>
 <g id="figure_1">
  <g id="patch_1">
   <path d="M 0 288 
L 432 288 
L 432 0 
L 0 0 
z
" style="fill:none;"/>
  </g>
  <g id="axes_1">
   <g id="patch_2">
    <path d="M 54 252 
L 388.8 252 
L 388.8 34.56 
L 54 34.56 
z
" style="fill:#ffffff;"/>
   </g>
   <g id="matplotlib.axis_1">
    <g id="xtick_1">
     <g id="line2d_1">
      <defs>
       <path d="M 0 0 
L 0 3.5 
" id="m3dffa3e5b8" style="stroke:#000000;stroke-width:0.8;"/>
      </defs>
      <g>
       <use style="stroke:#000000;stroke-width:0.8;" x="66.143802" xlink:href="#m3dffa3e5b8" y="252"/>
      </g>
     </g>
     <g id="text_1">
      <!-- 0 -->
      <g transform="translate(62.962552 266.598437)scale(0.1 -0.1)">
       <defs>
        <path d="M 2034 4250 
Q 1547 4250 1301 3770 
Q 1056 3291 1056 2328 
Q 1056 1369 1301 889 
Q 1547 409 2034 409 
Q 2525 409 2770 889 
Q 3016 1369 3016 2328 
Q 3016 3291 2770 3770 
Q 2525 4250 2034 4250 
z
M 2034 4750 
Q 2819 4750 3233 4129 
Q 3647 3509 3647 2328 
Q 3647 1150 3233 529 
Q 2819 -91 2034 -91 
Q 1250 -91 836 529 
Q 422 1150 422 2328 
Q 422 3509 836 4129 
Q 1250 4750 2034 4750 
z
" id="DejaVuSans-30" transform="scale(0.015625)"/>
       </defs>
       <use xlink:href="#DejaVuSans-30"/>
      </g>
     </g>
    </g>
    <g id="xtick_2">
     <g id="line2d_2">
      <g>
       <use style="stroke:#000000;stroke-width:0.8;" x="127.631405" xlink:href="#m3dffa3e5b8" y="252"/>
      </g>
     </g>
     <g id="text_2">
      <!-- 20 -->
      <g transform="translate(121.268905 266.598437)scale(0.1 -0.1)">
       <defs>
        <path d="M 1228 531 
L 3431 531 
L 3431 0 
L 469 0 
L 469 531 
Q 828 903 1448 1529 
Q 2069 2156 2228 2338 
Q 2531 2678 2651 2914 
Q 2772 3150 2772 3378 
Q 2772 3750 2511 3984 
Q 2250 4219 1831 4219 
Q 1534 4219 1204 4116 
Q 875 4013 500 3803 
L 500 4441 
Q 881 4594 1212 4672 
Q 1544 4750 1819 4750 
Q 2544 4750 2975 4387 
Q 3406 4025 3406 3419 
Q 3406 3131 3298 2873 
Q 3191 2616 2906 2266 
Q 2828 2175 2409 1742 
Q 1991 1309 1228 531 
z
" id="DejaVuSans-32" transform="scale(0.015625)"/>
       </defs>
       <use xlink:href="#DejaVuSans-32"/>
       <use x="63.623047" xlink:href="#DejaVuSans-30"/>
      </g>
     </g>
    </g>
    <g id="xtick_3">
     <g id="line2d_3">
      <g>
       <use style="stroke:#000000;stroke-width:0.8;" x="189.119008" xlink:href="#m3dffa3e5b8" y="252"/>
      </g>
     </g>
     <g id="text_3">
      <!-- 40 -->
      <g transform="translate(182.756508 266.598437)scale(0.1 -0.1)">
       <defs>
        <path d="M 2419 4116 
L 825 1625 
L 2419 1625 
L 2419 4116 
z
M 2253 4666 
L 3047 4666 
L 3047 1625 
L 3713 1625 
L 3713 1100 
L 3047 1100 
L 3047 0 
L 2419 0 
L 2419 1100 
L 313 1100 
L 313 1709 
L 2253 4666 
z
" id="DejaVuSans-34" transform="scale(0.015625)"/>
       </defs>
       <use xlink:href="#DejaVuSans-34"/>
       <use x="63.623047" xlink:href="#DejaVuSans-30"/>
      </g>
     </g>
    </g>
    <g id="xtick_4">
     <g id="line2d_4">
      <g>
       <use style="stroke:#000000;stroke-width:0.8;" x="250.606612" xlink:href="#m3dffa3e5b8" y="252"/>
      </g>
     </g>
     <g id="text_4">
      <!-- 60 -->
      <g transform="translate(244.244112 266.598437)scale(0.1 -0.1)">
       <defs>
        <path d="M 2113 2584 
Q 1688 2584 1439 2293 
Q 1191 2003 1191 1497 
Q 1191 994 1439 701 
Q 1688 409 2113 409 
Q 2538 409 2786 701 
Q 3034 994 3034 1497 
Q 3034 2003 2786 2293 
Q 2538 2584 2113 2584 
z
M 3366 4563 
L 3366 3988 
Q 3128 4100 2886 4159 
Q 2644 4219 2406 4219 
Q 1781 4219 1451 3797 
Q 1122 3375 1075 2522 
Q 1259 2794 1537 2939 
Q 1816 3084 2150 3084 
Q 2853 3084 3261 2657 
Q 3669 2231 3669 1497 
Q 3669 778 3244 343 
Q 2819 -91 2113 -91 
Q 1303 -91 875 529 
Q 447 1150 447 2328 
Q 447 3434 972 4092 
Q 1497 4750 2381 4750 
Q 2619 4750 2861 4703 
Q 3103 4656 3366 4563 
z
" id="DejaVuSans-36" transform="scale(0.015625)"/>
       </defs>
       <use xlink:href="#DejaVuSans-36"/>
       <use x="63.623047" xlink:href="#DejaVuSans-30"/>
      </g>
     </g>
    </g>
    <g id="xtick_5">
     <g id="line2d_5">
      <g>
       <use style="stroke:#000000;stroke-width:0.8;" x="312.094215" xlink:href="#m3dffa3e5b8" y="252"/>
      </g>
     </g>
     <g id="text_5">
      <!-- 80 -->
      <g transform="translate(305.731715 266.598437)scale(0.1 -0.1)">
       <defs>
        <path d="M 2034 2216 
Q 1584 2216 1326 1975 
Q 1069 1734 1069 1313 
Q 1069 891 1326 650 
Q 1584 409 2034 409 
Q 2484 409 2743 651 
Q 3003 894 3003 1313 
Q 3003 1734 2745 1975 
Q 2488 2216 2034 2216 
z
M 1403 2484 
Q 997 2584 770 2862 
Q 544 3141 544 3541 
Q 544 4100 942 4425 
Q 1341 4750 2034 4750 
Q 2731 4750 3128 4425 
Q 3525 4100 3525 3541 
Q 3525 3141 3298 2862 
Q 3072 2584 2669 2484 
Q 3125 2378 3379 2068 
Q 3634 1759 3634 1313 
Q 3634 634 3220 271 
Q 2806 -91 2034 -91 
Q 1263 -91 848 271 
Q 434 634 434 1313 
Q 434 1759 690 2068 
Q 947 2378 1403 2484 
z
M 1172 3481 
Q 1172 3119 1398 2916 
Q 1625 2713 2034 2713 
Q 2441 2713 2670 2916 
Q 2900 3119 2900 3481 
Q 2900 3844 2670 4047 
Q 2441 4250 2034 4250 
Q 1625 4250 1398 4047 
Q 1172 3844 1172 3481 
z
" id="DejaVuSans-38" transform="scale(0.015625)"/>
       </defs>
       <use xlink:href="#DejaVuSans-38"/>
       <use x="63.623047" xlink:href="#DejaVuSans-30"/>
      </g>
     </g>
    </g>
    <g id="xtick_6">
     <g id="line2d_6">
      <g>
       <use style="stroke:#000000;stroke-width:0.8;" x="373.581818" xlink:href="#m3dffa3e5b8" y="252"/>
      </g>
     </g>
     <g id="text_6">
      <!-- 100 -->
      <g transform="translate(364.038068 266.598437)scale(0.1 -0.1)">
       <defs>
        <path d="M 794 531 
L 1825 531 
L 1825 4091 
L 703 3866 
L 703 4441 
L 1819 4666 
L 2450 4666 
L 2450 531 
L 3481 531 
L 3481 0 
L 794 0 
L 794 531 
z
" id="DejaVuSans-31" transform="scale(0.015625)"/>
       </defs>
       <use xlink:href="#DejaVuSans-31"/>
       <use x="63.623047" xlink:href="#DejaVuSans-30"/>
       <use x="127.246094" xlink:href="#DejaVuSans-30"/>
      </g>
     </g>
    </g>
    <g id="text_7">
     <!-- iteration -->
     <g transform="translate(200.277344 280.276563)scale(0.1 -0.1)">
      <defs>
       <path d="M 603 3500 
L 1178 3500 
L 1178 0 
L 603 0 
L 603 3500 
z
M 603 4863 
L 1178 4863 
L 1178 4134 
L 603 4134 
L 603 4863 
z
" id="DejaVuSans-69" transform="scale(0.015625)"/>
       <path d="M 1172 4494 
L 1172 3500 
L 2356 3500 
L 2356 3053 
L 1172 3053 
L 1172 1153 
Q 1172 725 1289 603 
Q 1406 481 1766 481 
L 2356 481 
L 2356 0 
L 1766 0 
Q 1100 0 847 248 
Q 594 497 594 1153 
L 594 3053 
L 172 3053 
L 172 3500 
L 594 3500 
L 594 4494 
L 1172 4494 
z
" id="DejaVuSans-74" transform="scale(0.015625)"/>
       <path d="M 3597 1894 
L 3597 1613 
L 953 1613 
Q 991 1019 1311 708 
Q 1631 397 2203 397 
Q 2534 397 2845 478 
Q 3156 559 3463 722 
L 3463 178 
Q 3153 47 2828 -22 
Q 2503 -91 2169 -91 
Q 1331 -91 842 396 
Q 353 884 353 1716 
Q 353 2575 817 3079 
Q 1281 3584 2069 3584 
Q 2775 3584 3186 3129 
Q 3597 2675 3597 1894 
z
M 3022 2063 
Q 3016 2534 2758 2815 
Q 2500 3097 2075 3097 
Q 1594 3097 1305 2825 
Q 1016 2553 972 2059 
L 3022 2063 
z
" id="DejaVuSans-65" transform="scale(0.015625)"/>
       <path d="M 2631 2963 
Q 2534 3019 2420 3045 
Q 2306 3072 2169 3072 
Q 1681 3072 1420 2755 
Q 1159 2438 1159 1844 
L 1159 0 
L 581 0 
L 581 3500 
L 1159 3500 
L 1159 2956 
Q 1341 3275 1631 3429 
Q 1922 3584 2338 3584 
Q 2397 3584 2469 3576 
Q 2541 3569 2628 3553 
L 2631 2963 
z
" id="DejaVuSans-72" transform="scale(0.015625)"/>
       <path d="M 2194 1759 
Q 1497 1759 1228 1600 
Q 959 1441 959 1056 
Q 959 750 1161 570 
Q 1363 391 1709 391 
Q 2188 391 2477 730 
Q 2766 1069 2766 1631 
L 2766 1759 
L 2194 1759 
z
M 3341 1997 
L 3341 0 
L 2766 0 
L 2766 531 
Q 2569 213 2275 61 
Q 1981 -91 1556 -91 
Q 1019 -91 701 211 
Q 384 513 384 1019 
Q 384 1609 779 1909 
Q 1175 2209 1959 2209 
L 2766 2209 
L 2766 2266 
Q 2766 2663 2505 2880 
Q 2244 3097 1772 3097 
Q 1472 3097 1187 3025 
Q 903 2953 641 2809 
L 641 3341 
Q 956 3463 1253 3523 
Q 1550 3584 1831 3584 
Q 2591 3584 2966 3190 
Q 3341 2797 3341 1997 
z
" id="DejaVuSans-61" transform="scale(0.015625)"/>
       <path d="M 1959 3097 
Q 1497 3097 1228 2736 
Q 959 2375 959 1747 
Q 959 1119 1226 758 
Q 1494 397 1959 397 
Q 2419 397 2687 759 
Q 2956 1122 2956 1747 
Q 2956 2369 2687 2733 
Q 2419 3097 1959 3097 
z
M 1959 3584 
Q 2709 3584 3137 3096 
Q 3566 2609 3566 1747 
Q 3566 888 3137 398 
Q 2709 -91 1959 -91 
Q 1206 -91 779 398 
Q 353 888 353 1747 
Q 353 2609 779 3096 
Q 1206 3584 1959 3584 
z
" id="DejaVuSans-6f" transform="scale(0.015625)"/>
       <path d="M 3513 2113 
L 3513 0 
L 2938 0 
L 2938 2094 
Q 2938 2591 2744 2837 
Q 2550 3084 2163 3084 
Q 1697 3084 1428 2787 
Q 1159 2491 1159 1978 
L 1159 0 
L 581 0 
L 581 3500 
L 1159 3500 
L 1159 2956 
Q 1366 3272 1645 3428 
Q 1925 3584 2291 3584 
Q 2894 3584 3203 3211 
Q 3513 2838 3513 2113 
z
" id="DejaVuSans-6e" transform="scale(0.015625)"/>
      </defs>
      <use xlink:href="#DejaVuSans-69"/>
      <use x="27.783203" xlink:href="#DejaVuSans-74"/>
      <use x="66.992188" xlink:href="#DejaVuSans-65"/>
      <use x="128.515625" xlink:href="#DejaVuSans-72"/>
      <use x="169.628906" xlink:href="#DejaVuSans-61"/>
      <use x="230.908203" xlink:href="#DejaVuSans-74"/>
      <use x="270.117188" xlink:href="#DejaVuSans-69"/>
      <use x="297.900391" xlink:href="#DejaVuSans-6f"/>
      <use x="359.082031" xlink:href="#DejaVuSans-6e"/>
     </g>
    </g>
   </g>
   <g id="matplotlib.axis_2">
    <g id="ytick_1">
     <g id="line2d_7">
      <defs>
       <path d="M 0 0 
L -3.5 0 
" id="ma8e3eb5679" style="stroke:#000000;stroke-width:0.8;"/>
      </defs>
      <g>
       <use style="stroke:#000000;stroke-width:0.8;" x="54" xlink:href="#ma8e3eb5679" y="246.83892"/>
      </g>
     </g>
     <g id="text_8">
      <!-- 0.0 -->
      <g transform="translate(31.096875 250.638139)scale(0.1 -0.1)">
       <defs>
        <path d="M 684 794 
L 1344 794 
L 1344 0 
L 684 0 
L 684 794 
z
" id="DejaVuSans-2e" transform="scale(0.015625)"/>
       </defs>
       <use xlink:href="#DejaVuSans-30"/>
       <use x="63.623047" xlink:href="#DejaVuSans-2e"/>
       <use x="95.410156" xlink:href="#DejaVuSans-30"/>
      </g>
     </g>
    </g>
    <g id="ytick_2">
     <g id="line2d_8">
      <g>
       <use style="stroke:#000000;stroke-width:0.8;" x="54" xlink:href="#ma8e3eb5679" y="201.862191"/>
      </g>
     </g>
     <g id="text_9">
      <!-- 0.2 -->
      <g transform="translate(31.096875 205.661409)scale(0.1 -0.1)">
       <use xlink:href="#DejaVuSans-30"/>
       <use x="63.623047" xlink:href="#DejaVuSans-2e"/>
       <use x="95.410156" xlink:href="#DejaVuSans-32"/>
      </g>
     </g>
    </g>
    <g id="ytick_3">
     <g id="line2d_9">
      <g>
       <use style="stroke:#000000;stroke-width:0.8;" x="54" xlink:href="#ma8e3eb5679" y="156.885461"/>
      </g>
     </g>
     <g id="text_10">
      <!-- 0.4 -->
      <g transform="translate(31.096875 160.68468)scale(0.1 -0.1)">
       <use xlink:href="#DejaVuSans-30"/>
       <use x="63.623047" xlink:href="#DejaVuSans-2e"/>
       <use x="95.410156" xlink:href="#DejaVuSans-34"/>
      </g>
     </g>
    </g>
    <g id="ytick_4">
     <g id="line2d_10">
      <g>
       <use style="stroke:#000000;stroke-width:0.8;" x="54" xlink:href="#ma8e3eb5679" y="111.908731"/>
      </g>
     </g>
     <g id="text_11">
      <!-- 0.6 -->
      <g transform="translate(31.096875 115.70795)scale(0.1 -0.1)">
       <use xlink:href="#DejaVuSans-30"/>
       <use x="63.623047" xlink:href="#DejaVuSans-2e"/>
       <use x="95.410156" xlink:href="#DejaVuSans-36"/>
      </g>
     </g>
    </g>
    <g id="ytick_5">
     <g id="line2d_11">
      <g>
       <use style="stroke:#000000;stroke-width:0.8;" x="54" xlink:href="#ma8e3eb5679" y="66.932001"/>
      </g>
     </g>
     <g id="text_12">
      <!-- 0.8 -->
      <g transform="translate(31.096875 70.73122)scale(0.1 -0.1)">
       <use xlink:href="#DejaVuSans-30"/>
       <use x="63.623047" xlink:href="#DejaVuSans-2e"/>
       <use x="95.410156" xlink:href="#DejaVuSans-38"/>
      </g>
     </g>
    </g>
    <g id="text_13">
     <!-- #users -->
     <g transform="translate(25.017187 160.98)rotate(-90)scale(0.1 -0.1)">
      <defs>
       <path d="M 3272 2816 
L 2363 2816 
L 2100 1772 
L 3016 1772 
L 3272 2816 
z
M 2803 4594 
L 2478 3297 
L 3391 3297 
L 3719 4594 
L 4219 4594 
L 3897 3297 
L 4872 3297 
L 4872 2816 
L 3775 2816 
L 3519 1772 
L 4513 1772 
L 4513 1294 
L 3397 1294 
L 3072 0 
L 2572 0 
L 2894 1294 
L 1978 1294 
L 1656 0 
L 1153 0 
L 1478 1294 
L 494 1294 
L 494 1772 
L 1594 1772 
L 1856 2816 
L 850 2816 
L 850 3297 
L 1978 3297 
L 2297 4594 
L 2803 4594 
z
" id="DejaVuSans-23" transform="scale(0.015625)"/>
       <path d="M 544 1381 
L 544 3500 
L 1119 3500 
L 1119 1403 
Q 1119 906 1312 657 
Q 1506 409 1894 409 
Q 2359 409 2629 706 
Q 2900 1003 2900 1516 
L 2900 3500 
L 3475 3500 
L 3475 0 
L 2900 0 
L 2900 538 
Q 2691 219 2414 64 
Q 2138 -91 1772 -91 
Q 1169 -91 856 284 
Q 544 659 544 1381 
z
M 1991 3584 
L 1991 3584 
z
" id="DejaVuSans-75" transform="scale(0.015625)"/>
       <path d="M 2834 3397 
L 2834 2853 
Q 2591 2978 2328 3040 
Q 2066 3103 1784 3103 
Q 1356 3103 1142 2972 
Q 928 2841 928 2578 
Q 928 2378 1081 2264 
Q 1234 2150 1697 2047 
L 1894 2003 
Q 2506 1872 2764 1633 
Q 3022 1394 3022 966 
Q 3022 478 2636 193 
Q 2250 -91 1575 -91 
Q 1294 -91 989 -36 
Q 684 19 347 128 
L 347 722 
Q 666 556 975 473 
Q 1284 391 1588 391 
Q 1994 391 2212 530 
Q 2431 669 2431 922 
Q 2431 1156 2273 1281 
Q 2116 1406 1581 1522 
L 1381 1569 
Q 847 1681 609 1914 
Q 372 2147 372 2553 
Q 372 3047 722 3315 
Q 1072 3584 1716 3584 
Q 2034 3584 2315 3537 
Q 2597 3491 2834 3397 
z
" id="DejaVuSans-73" transform="scale(0.015625)"/>
      </defs>
      <use xlink:href="#DejaVuSans-23"/>
      <use x="83.789062" xlink:href="#DejaVuSans-75"/>
      <use x="147.167969" xlink:href="#DejaVuSans-73"/>
      <use x="199.267578" xlink:href="#DejaVuSans-65"/>
      <use x="260.791016" xlink:href="#DejaVuSans-72"/>
      <use x="301.904297" xlink:href="#DejaVuSans-73"/>
     </g>
    </g>
   </g>
   <g id="line2d_12">
    <path clip-path="url(#pa6299bf7b0)" d="M 69.218182 224.350555 
L 72.292562 224.350555 
L 75.366942 224.350555 
L 78.441322 224.350555 
L 81.515702 224.350555 
L 84.590083 224.350555 
L 87.664463 224.350555 
L 90.738843 224.350555 
L 93.813223 224.350555 
L 96.887603 224.350555 
L 99.961983 224.350555 
L 103.036364 224.125672 
L 106.110744 224.125672 
L 109.185124 224.125672 
L 112.259504 224.350555 
L 115.333884 224.350555 
L 118.408264 224.350555 
L 121.482645 224.350555 
L 124.557025 224.575439 
L 127.631405 44.443636 
L 130.705785 224.125672 
L 133.780165 224.125672 
L 136.854545 44.443636 
L 139.928926 224.125672 
L 143.003306 224.125672 
L 146.077686 224.575439 
L 149.152066 224.350555 
L 152.226446 224.575439 
L 155.300826 224.350555 
L 158.375207 224.350555 
L 161.449587 224.350555 
L 164.523967 224.350555 
L 167.598347 224.350555 
L 170.672727 224.350555 
L 173.747107 224.350555 
L 176.821488 224.350555 
L 179.895868 224.350555 
L 182.970248 228.848228 
L 186.044628 224.350555 
L 189.119008 224.350555 
L 192.193388 224.350555 
L 195.267769 224.350555 
L 198.342149 224.350555 
L 201.416529 44.443636 
L 204.490909 224.350555 
L 207.565289 224.350555 
L 210.639669 224.350555 
L 213.71405 224.350555 
L 216.78843 48.041775 
L 219.86281 231.546832 
L 222.93719 224.350555 
L 226.01157 224.350555 
L 229.08595 229.747763 
L 232.160331 224.350555 
L 235.234711 224.350555 
L 238.309091 224.350555 
L 241.383471 224.350555 
L 244.457851 224.125672 
L 247.532231 223.900788 
L 250.606612 223.900788 
L 253.680992 223.675904 
L 256.755372 223.675904 
L 259.829752 223.675904 
L 262.904132 223.675904 
L 265.978512 223.675904 
L 269.052893 223.675904 
L 272.127273 223.900788 
L 275.201653 223.451021 
L 278.276033 223.900788 
L 281.350413 223.900788 
L 284.424793 223.900788 
L 287.499174 223.226137 
L 290.573554 223.675904 
L 293.647934 223.675904 
L 296.722314 223.900788 
L 299.796694 223.226137 
L 302.871074 223.451021 
L 305.945455 223.451021 
L 309.019835 223.451021 
L 312.094215 223.451021 
L 315.168595 223.675904 
L 318.242975 223.226137 
L 321.317355 223.226137 
L 324.391736 223.451021 
L 327.466116 223.451021 
L 330.540496 223.451021 
L 333.614876 223.675904 
L 336.689256 223.001253 
L 339.763636 223.451021 
L 342.838017 223.451021 
L 345.912397 223.001253 
L 348.986777 222.77637 
L 352.061157 222.77637 
L 355.135537 222.77637 
L 358.209917 223.001253 
L 361.284298 223.001253 
L 364.358678 222.77637 
L 367.433058 222.77637 
L 370.507438 222.77637 
L 373.581818 222.77637 
" style="fill:none;stroke:#1f77b4;stroke-linecap:square;stroke-width:1.5;"/>
   </g>
   <g id="line2d_13">
    <path clip-path="url(#pa6299bf7b0)" d="M 69.218182 66.932001 
L 72.292562 66.932001 
L 75.366942 66.932001 
L 78.441322 66.932001 
L 81.515702 66.932001 
L 84.590083 66.932001 
L 87.664463 66.932001 
L 90.738843 66.932001 
L 93.813223 66.932001 
L 96.887603 66.932001 
L 99.961983 70.305256 
L 103.036364 70.305256 
L 106.110744 71.204791 
L 109.185124 67.156885 
L 112.259504 69.630605 
L 115.333884 70.080372 
L 118.408264 66.932001 
L 121.482645 69.630605 
L 124.557025 69.630605 
L 127.631405 237.168923 
L 130.705785 67.156885 
L 133.780165 67.156885 
L 136.854545 236.494272 
L 139.928926 67.156885 
L 143.003306 67.156885 
L 146.077686 69.180838 
L 149.152066 66.932001 
L 152.226446 69.630605 
L 155.300826 66.932001 
L 158.375207 66.932001 
L 161.449587 66.932001 
L 164.523967 66.932001 
L 167.598347 66.932001 
L 170.672727 68.506187 
L 173.747107 66.932001 
L 176.821488 66.932001 
L 179.895868 66.932001 
L 182.970248 242.116364 
L 186.044628 66.932001 
L 189.119008 66.932001 
L 192.193388 66.932001 
L 195.267769 66.932001 
L 198.342149 69.405721 
L 201.416529 240.991945 
L 204.490909 66.932001 
L 207.565289 67.831536 
L 210.639669 66.932001 
L 213.71405 67.156885 
L 216.78843 236.719156 
L 219.86281 239.192876 
L 222.93719 66.932001 
L 226.01157 66.932001 
L 229.08595 240.767062 
L 232.160331 66.932001 
L 235.234711 66.932001 
L 238.309091 66.932001 
L 241.383471 67.156885 
L 244.457851 67.156885 
L 247.532231 67.381769 
L 250.606612 67.381769 
L 253.680992 67.606652 
L 256.755372 67.606652 
L 259.829752 67.606652 
L 262.904132 67.606652 
L 265.978512 67.606652 
L 269.052893 67.606652 
L 272.127273 67.381769 
L 275.201653 67.831536 
L 278.276033 67.381769 
L 281.350413 67.381769 
L 284.424793 67.381769 
L 287.499174 68.056419 
L 290.573554 67.606652 
L 293.647934 67.606652 
L 296.722314 67.381769 
L 299.796694 68.056419 
L 302.871074 67.831536 
L 305.945455 67.831536 
L 309.019835 67.831536 
L 312.094215 67.831536 
L 315.168595 67.606652 
L 318.242975 68.056419 
L 321.317355 68.056419 
L 324.391736 67.831536 
L 327.466116 67.831536 
L 330.540496 67.831536 
L 333.614876 67.606652 
L 336.689256 68.281303 
L 339.763636 67.831536 
L 342.838017 67.831536 
L 345.912397 68.281303 
L 348.986777 68.506187 
L 352.061157 68.506187 
L 355.135537 68.506187 
L 358.209917 68.281303 
L 361.284298 68.281303 
L 364.358678 68.506187 
L 367.433058 68.506187 
L 370.507438 68.506187 
L 373.581818 68.506187 
" style="fill:none;stroke:#ff7f0e;stroke-linecap:square;stroke-width:1.5;"/>
   </g>
   <g id="line2d_14">
    <path clip-path="url(#pa6299bf7b0)" d="M 69.218182 224.350555 
L 72.292562 224.350555 
L 75.366942 224.350555 
L 78.441322 224.350555 
L 81.515702 224.350555 
L 84.590083 224.350555 
L 87.664463 224.350555 
L 90.738843 224.350555 
L 93.813223 224.350555 
L 96.887603 224.350555 
L 99.961983 220.977301 
L 103.036364 221.202184 
L 106.110744 220.30265 
L 109.185124 224.350555 
L 112.259504 221.651952 
L 115.333884 221.202184 
L 118.408264 224.350555 
L 121.482645 221.651952 
L 124.557025 221.427068 
L 127.631405 234.020552 
L 130.705785 224.350555 
L 133.780165 224.350555 
L 136.854545 234.695203 
L 139.928926 224.350555 
L 143.003306 224.350555 
L 146.077686 221.876835 
L 149.152066 224.350555 
L 152.226446 221.427068 
L 155.300826 224.350555 
L 158.375207 224.350555 
L 161.449587 224.350555 
L 164.523967 224.350555 
L 167.598347 224.350555 
L 170.672727 222.77637 
L 173.747107 224.350555 
L 176.821488 224.350555 
L 179.895868 224.350555 
L 182.970248 44.66852 
L 186.044628 224.350555 
L 189.119008 224.350555 
L 192.193388 224.350555 
L 195.267769 224.350555 
L 198.342149 221.876835 
L 201.416529 230.19753 
L 204.490909 224.350555 
L 207.565289 223.451021 
L 210.639669 224.350555 
L 213.71405 224.125672 
L 216.78843 230.872181 
L 219.86281 44.893404 
L 222.93719 224.350555 
L 226.01157 224.350555 
L 229.08595 45.118287 
L 232.160331 224.350555 
L 235.234711 224.350555 
L 238.309091 224.350555 
L 241.383471 224.125672 
L 244.457851 224.350555 
L 247.532231 224.350555 
L 250.606612 224.350555 
L 253.680992 224.350555 
L 256.755372 224.350555 
L 259.829752 224.350555 
L 262.904132 224.350555 
L 265.978512 224.350555 
L 269.052893 224.350555 
L 272.127273 224.350555 
L 275.201653 224.350555 
L 278.276033 224.350555 
L 281.350413 224.350555 
L 284.424793 224.350555 
L 287.499174 224.350555 
L 290.573554 224.350555 
L 293.647934 224.350555 
L 296.722314 224.350555 
L 299.796694 224.350555 
L 302.871074 224.350555 
L 305.945455 224.350555 
L 309.019835 224.350555 
L 312.094215 224.350555 
L 315.168595 224.350555 
L 318.242975 224.350555 
L 321.317355 224.350555 
L 324.391736 224.350555 
L 327.466116 224.350555 
L 330.540496 224.350555 
L 333.614876 224.350555 
L 336.689256 224.350555 
L 339.763636 224.350555 
L 342.838017 224.350555 
L 345.912397 224.350555 
L 348.986777 224.350555 
L 352.061157 224.350555 
L 355.135537 224.350555 
L 358.209917 224.350555 
L 361.284298 224.350555 
L 364.358678 224.350555 
L 367.433058 224.350555 
L 370.507438 224.350555 
L 373.581818 224.350555 
" style="fill:none;stroke:#2ca02c;stroke-linecap:square;stroke-width:1.5;"/>
   </g>
   <g id="patch_3">
    <path d="M 54 252 
L 54 34.56 
" style="fill:none;stroke:#000000;stroke-linecap:square;stroke-linejoin:miter;stroke-width:0.8;"/>
   </g>
   <g id="patch_4">
    <path d="M 388.8 252 
L 388.8 34.56 
" style="fill:none;stroke:#000000;stroke-linecap:square;stroke-linejoin:miter;stroke-width:0.8;"/>
   </g>
   <g id="patch_5">
    <path d="M 54 252 
L 388.8 252 
" style="fill:none;stroke:#000000;stroke-linecap:square;stroke-linejoin:miter;stroke-width:0.8;"/>
   </g>
   <g id="patch_6">
    <path d="M 54 34.56 
L 388.8 34.56 
" style="fill:none;stroke:#000000;stroke-linecap:square;stroke-linejoin:miter;stroke-width:0.8;"/>
   </g>
   <g id="text_14">
    <!-- Fraction of Users in each cluster over the simulation -->
    <g transform="translate(64.761563 28.56)scale(0.12 -0.12)">
     <defs>
      <path d="M 628 4666 
L 3309 4666 
L 3309 4134 
L 1259 4134 
L 1259 2759 
L 3109 2759 
L 3109 2228 
L 1259 2228 
L 1259 0 
L 628 0 
L 628 4666 
z
" id="DejaVuSans-46" transform="scale(0.015625)"/>
      <path d="M 3122 3366 
L 3122 2828 
Q 2878 2963 2633 3030 
Q 2388 3097 2138 3097 
Q 1578 3097 1268 2742 
Q 959 2388 959 1747 
Q 959 1106 1268 751 
Q 1578 397 2138 397 
Q 2388 397 2633 464 
Q 2878 531 3122 666 
L 3122 134 
Q 2881 22 2623 -34 
Q 2366 -91 2075 -91 
Q 1284 -91 818 406 
Q 353 903 353 1747 
Q 353 2603 823 3093 
Q 1294 3584 2113 3584 
Q 2378 3584 2631 3529 
Q 2884 3475 3122 3366 
z
" id="DejaVuSans-63" transform="scale(0.015625)"/>
      <path id="DejaVuSans-20" transform="scale(0.015625)"/>
      <path d="M 2375 4863 
L 2375 4384 
L 1825 4384 
Q 1516 4384 1395 4259 
Q 1275 4134 1275 3809 
L 1275 3500 
L 2222 3500 
L 2222 3053 
L 1275 3053 
L 1275 0 
L 697 0 
L 697 3053 
L 147 3053 
L 147 3500 
L 697 3500 
L 697 3744 
Q 697 4328 969 4595 
Q 1241 4863 1831 4863 
L 2375 4863 
z
" id="DejaVuSans-66" transform="scale(0.015625)"/>
      <path d="M 556 4666 
L 1191 4666 
L 1191 1831 
Q 1191 1081 1462 751 
Q 1734 422 2344 422 
Q 2950 422 3222 751 
Q 3494 1081 3494 1831 
L 3494 4666 
L 4128 4666 
L 4128 1753 
Q 4128 841 3676 375 
Q 3225 -91 2344 -91 
Q 1459 -91 1007 375 
Q 556 841 556 1753 
L 556 4666 
z
" id="DejaVuSans-55" transform="scale(0.015625)"/>
      <path d="M 3513 2113 
L 3513 0 
L 2938 0 
L 2938 2094 
Q 2938 2591 2744 2837 
Q 2550 3084 2163 3084 
Q 1697 3084 1428 2787 
Q 1159 2491 1159 1978 
L 1159 0 
L 581 0 
L 581 4863 
L 1159 4863 
L 1159 2956 
Q 1366 3272 1645 3428 
Q 1925 3584 2291 3584 
Q 2894 3584 3203 3211 
Q 3513 2838 3513 2113 
z
" id="DejaVuSans-68" transform="scale(0.015625)"/>
      <path d="M 603 4863 
L 1178 4863 
L 1178 0 
L 603 0 
L 603 4863 
z
" id="DejaVuSans-6c" transform="scale(0.015625)"/>
      <path d="M 191 3500 
L 800 3500 
L 1894 563 
L 2988 3500 
L 3597 3500 
L 2284 0 
L 1503 0 
L 191 3500 
z
" id="DejaVuSans-76" transform="scale(0.015625)"/>
      <path d="M 3328 2828 
Q 3544 3216 3844 3400 
Q 4144 3584 4550 3584 
Q 5097 3584 5394 3201 
Q 5691 2819 5691 2113 
L 5691 0 
L 5113 0 
L 5113 2094 
Q 5113 2597 4934 2840 
Q 4756 3084 4391 3084 
Q 3944 3084 3684 2787 
Q 3425 2491 3425 1978 
L 3425 0 
L 2847 0 
L 2847 2094 
Q 2847 2600 2669 2842 
Q 2491 3084 2119 3084 
Q 1678 3084 1418 2786 
Q 1159 2488 1159 1978 
L 1159 0 
L 581 0 
L 581 3500 
L 1159 3500 
L 1159 2956 
Q 1356 3278 1631 3431 
Q 1906 3584 2284 3584 
Q 2666 3584 2933 3390 
Q 3200 3197 3328 2828 
z
" id="DejaVuSans-6d" transform="scale(0.015625)"/>
     </defs>
     <use xlink:href="#DejaVuSans-46"/>
     <use x="50.269531" xlink:href="#DejaVuSans-72"/>
     <use x="91.382812" xlink:href="#DejaVuSans-61"/>
     <use x="152.662109" xlink:href="#DejaVuSans-63"/>
     <use x="207.642578" xlink:href="#DejaVuSans-74"/>
     <use x="246.851562" xlink:href="#DejaVuSans-69"/>
     <use x="274.634766" xlink:href="#DejaVuSans-6f"/>
     <use x="335.816406" xlink:href="#DejaVuSans-6e"/>
     <use x="399.195312" xlink:href="#DejaVuSans-20"/>
     <use x="430.982422" xlink:href="#DejaVuSans-6f"/>
     <use x="492.164062" xlink:href="#DejaVuSans-66"/>
     <use x="527.369141" xlink:href="#DejaVuSans-20"/>
     <use x="559.15625" xlink:href="#DejaVuSans-55"/>
     <use x="632.349609" xlink:href="#DejaVuSans-73"/>
     <use x="684.449219" xlink:href="#DejaVuSans-65"/>
     <use x="745.972656" xlink:href="#DejaVuSans-72"/>
     <use x="787.085938" xlink:href="#DejaVuSans-73"/>
     <use x="839.185547" xlink:href="#DejaVuSans-20"/>
     <use x="870.972656" xlink:href="#DejaVuSans-69"/>
     <use x="898.755859" xlink:href="#DejaVuSans-6e"/>
     <use x="962.134766" xlink:href="#DejaVuSans-20"/>
     <use x="993.921875" xlink:href="#DejaVuSans-65"/>
     <use x="1055.445312" xlink:href="#DejaVuSans-61"/>
     <use x="1116.724609" xlink:href="#DejaVuSans-63"/>
     <use x="1171.705078" xlink:href="#DejaVuSans-68"/>
     <use x="1235.083984" xlink:href="#DejaVuSans-20"/>
     <use x="1266.871094" xlink:href="#DejaVuSans-63"/>
     <use x="1321.851562" xlink:href="#DejaVuSans-6c"/>
     <use x="1349.634766" xlink:href="#DejaVuSans-75"/>
     <use x="1413.013672" xlink:href="#DejaVuSans-73"/>
     <use x="1465.113281" xlink:href="#DejaVuSans-74"/>
     <use x="1504.322266" xlink:href="#DejaVuSans-65"/>
     <use x="1565.845703" xlink:href="#DejaVuSans-72"/>
     <use x="1606.958984" xlink:href="#DejaVuSans-20"/>
     <use x="1638.746094" xlink:href="#DejaVuSans-6f"/>
     <use x="1699.927734" xlink:href="#DejaVuSans-76"/>
     <use x="1759.107422" xlink:href="#DejaVuSans-65"/>
     <use x="1820.630859" xlink:href="#DejaVuSans-72"/>
     <use x="1861.744141" xlink:href="#DejaVuSans-20"/>
     <use x="1893.53125" xlink:href="#DejaVuSans-74"/>
     <use x="1932.740234" xlink:href="#DejaVuSans-68"/>
     <use x="1996.119141" xlink:href="#DejaVuSans-65"/>
     <use x="2057.642578" xlink:href="#DejaVuSans-20"/>
     <use x="2089.429688" xlink:href="#DejaVuSans-73"/>
     <use x="2141.529297" xlink:href="#DejaVuSans-69"/>
     <use x="2169.3125" xlink:href="#DejaVuSans-6d"/>
     <use x="2266.724609" xlink:href="#DejaVuSans-75"/>
     <use x="2330.103516" xlink:href="#DejaVuSans-6c"/>
     <use x="2357.886719" xlink:href="#DejaVuSans-61"/>
     <use x="2419.166016" xlink:href="#DejaVuSans-74"/>
     <use x="2458.375" xlink:href="#DejaVuSans-69"/>
     <use x="2486.158203" xlink:href="#DejaVuSans-6f"/>
     <use x="2547.339844" xlink:href="#DejaVuSans-6e"/>
    </g>
   </g>
   <g id="legend_1">
    <g id="patch_7">
     <path d="M 339.829688 166.797188 
L 381.8 166.797188 
Q 383.8 166.797188 383.8 164.797188 
L 383.8 121.762812 
Q 383.8 119.762812 381.8 119.762812 
L 339.829688 119.762812 
Q 337.829688 119.762812 337.829688 121.762812 
L 337.829688 164.797188 
Q 337.829688 166.797188 339.829688 166.797188 
z
" style="fill:#ffffff;opacity:0.8;stroke:#cccccc;stroke-linejoin:miter;"/>
    </g>
    <g id="line2d_15">
     <path d="M 341.829688 127.86125 
L 361.829688 127.86125 
" style="fill:none;stroke:#1f77b4;stroke-linecap:square;stroke-width:1.5;"/>
    </g>
    <g id="line2d_16"/>
    <g id="text_15">
     <!-- -1 -->
     <g transform="translate(369.829688 131.36125)scale(0.1 -0.1)">
      <defs>
       <path d="M 313 2009 
L 1997 2009 
L 1997 1497 
L 313 1497 
L 313 2009 
z
" id="DejaVuSans-2d" transform="scale(0.015625)"/>
      </defs>
      <use xlink:href="#DejaVuSans-2d"/>
      <use x="36.083984" xlink:href="#DejaVuSans-31"/>
     </g>
    </g>
    <g id="line2d_17">
     <path d="M 341.829688 142.539375 
L 361.829688 142.539375 
" style="fill:none;stroke:#ff7f0e;stroke-linecap:square;stroke-width:1.5;"/>
    </g>
    <g id="line2d_18"/>
    <g id="text_16">
     <!-- 0 -->
     <g transform="translate(369.829688 146.039375)scale(0.1 -0.1)">
      <use xlink:href="#DejaVuSans-30"/>
     </g>
    </g>
    <g id="line2d_19">
     <path d="M 341.829688 157.2175 
L 361.829688 157.2175 
" style="fill:none;stroke:#2ca02c;stroke-linecap:square;stroke-width:1.5;"/>
    </g>
    <g id="line2d_20"/>
    <g id="text_17">
     <!-- 1 -->
     <g transform="translate(369.829688 160.7175)scale(0.1 -0.1)">
      <use xlink:href="#DejaVuSans-31"/>
     </g>
    </g>
   </g>
  </g>
 </g>
 <defs>
  <clipPath id="pa6299bf7b0">
   <rect height="217.44" width="334.8" x="54" y="34.56"/>
  </clipPath>
 </defs>
</svg>
