<?xml version="1.0" encoding="utf-8" standalone="no"?>
<!DOCTYPE svg PUBLIC "-//W3C//DTD SVG 1.1//EN"
  "http://www.w3.org/Graphics/SVG/1.1/DTD/svg11.dtd">
<svg height="288pt" version="1.1" viewBox="0 0 432 288" width="432pt" xmlns="http://www.w3.org/2000/svg" xmlns:xlink="http://www.w3.org/1999/xlink">
 <metadata>
  <rdf:RDF xmlns:cc="http://creativecommons.org/ns#" xmlns:dc="http://purl.org/dc/elements/1.1/" xmlns:rdf="http://www.w3.org/1999/02/22-rdf-syntax-ns#">
   <cc:Work>
    <dc:type rdf:resource="http://purl.org/dc/dcmitype/StillImage"/>
    <dc:date>2021-06-22T22:09:30.677294</dc:date>
    <dc:format>image/svg+xml</dc:format>
    <dc:creator>
     <cc:Agent>
      <dc:title>Matplotlib v3.4.0, https://matplotlib.org/</dc:title>
     </cc:Agent>
    </dc:creator>
   </cc:Work>
  </rdf:RDF>
 </metadata>
 <defs>
  <style type="text/css">*{stroke-linecap:butt;stroke-linejoin:round;}</style>
 </defs>
 <g id="figure_1">
  <g id="patch_1">
   <path d="M 0 288 
L 432 288 
L 432 0 
L 0 0 
z
" style="fill:none;"/>
  </g>
  <g id="axes_1">
   <g id="patch_2">
    <path d="M 54 252 
L 388.8 252 
L 388.8 34.56 
L 54 34.56 
z
" style="fill:#ffffff;"/>
   </g>
   <g id="matplotlib.axis_1">
    <g id="xtick_1">
     <g id="line2d_1">
      <defs>
       <path d="M 0 0 
L 0 3.5 
" id="m2400abdb26" style="stroke:#000000;stroke-width:0.8;"/>
      </defs>
      <g>
       <use style="stroke:#000000;stroke-width:0.8;" x="66.143802" xlink:href="#m2400abdb26" y="252"/>
      </g>
     </g>
     <g id="text_1">
      <!-- 0 -->
      <g transform="translate(62.962552 266.598437)scale(0.1 -0.1)">
       <defs>
        <path d="M 2034 4250 
Q 1547 4250 1301 3770 
Q 1056 3291 1056 2328 
Q 1056 1369 1301 889 
Q 1547 409 2034 409 
Q 2525 409 2770 889 
Q 3016 1369 3016 2328 
Q 3016 3291 2770 3770 
Q 2525 4250 2034 4250 
z
M 2034 4750 
Q 2819 4750 3233 4129 
Q 3647 3509 3647 2328 
Q 3647 1150 3233 529 
Q 2819 -91 2034 -91 
Q 1250 -91 836 529 
Q 422 1150 422 2328 
Q 422 3509 836 4129 
Q 1250 4750 2034 4750 
z
" id="DejaVuSans-30" transform="scale(0.015625)"/>
       </defs>
       <use xlink:href="#DejaVuSans-30"/>
      </g>
     </g>
    </g>
    <g id="xtick_2">
     <g id="line2d_2">
      <g>
       <use style="stroke:#000000;stroke-width:0.8;" x="127.631405" xlink:href="#m2400abdb26" y="252"/>
      </g>
     </g>
     <g id="text_2">
      <!-- 20 -->
      <g transform="translate(121.268905 266.598437)scale(0.1 -0.1)">
       <defs>
        <path d="M 1228 531 
L 3431 531 
L 3431 0 
L 469 0 
L 469 531 
Q 828 903 1448 1529 
Q 2069 2156 2228 2338 
Q 2531 2678 2651 2914 
Q 2772 3150 2772 3378 
Q 2772 3750 2511 3984 
Q 2250 4219 1831 4219 
Q 1534 4219 1204 4116 
Q 875 4013 500 3803 
L 500 4441 
Q 881 4594 1212 4672 
Q 1544 4750 1819 4750 
Q 2544 4750 2975 4387 
Q 3406 4025 3406 3419 
Q 3406 3131 3298 2873 
Q 3191 2616 2906 2266 
Q 2828 2175 2409 1742 
Q 1991 1309 1228 531 
z
" id="DejaVuSans-32" transform="scale(0.015625)"/>
       </defs>
       <use xlink:href="#DejaVuSans-32"/>
       <use x="63.623047" xlink:href="#DejaVuSans-30"/>
      </g>
     </g>
    </g>
    <g id="xtick_3">
     <g id="line2d_3">
      <g>
       <use style="stroke:#000000;stroke-width:0.8;" x="189.119008" xlink:href="#m2400abdb26" y="252"/>
      </g>
     </g>
     <g id="text_3">
      <!-- 40 -->
      <g transform="translate(182.756508 266.598437)scale(0.1 -0.1)">
       <defs>
        <path d="M 2419 4116 
L 825 1625 
L 2419 1625 
L 2419 4116 
z
M 2253 4666 
L 3047 4666 
L 3047 1625 
L 3713 1625 
L 3713 1100 
L 3047 1100 
L 3047 0 
L 2419 0 
L 2419 1100 
L 313 1100 
L 313 1709 
L 2253 4666 
z
" id="DejaVuSans-34" transform="scale(0.015625)"/>
       </defs>
       <use xlink:href="#DejaVuSans-34"/>
       <use x="63.623047" xlink:href="#DejaVuSans-30"/>
      </g>
     </g>
    </g>
    <g id="xtick_4">
     <g id="line2d_4">
      <g>
       <use style="stroke:#000000;stroke-width:0.8;" x="250.606612" xlink:href="#m2400abdb26" y="252"/>
      </g>
     </g>
     <g id="text_4">
      <!-- 60 -->
      <g transform="translate(244.244112 266.598437)scale(0.1 -0.1)">
       <defs>
        <path d="M 2113 2584 
Q 1688 2584 1439 2293 
Q 1191 2003 1191 1497 
Q 1191 994 1439 701 
Q 1688 409 2113 409 
Q 2538 409 2786 701 
Q 3034 994 3034 1497 
Q 3034 2003 2786 2293 
Q 2538 2584 2113 2584 
z
M 3366 4563 
L 3366 3988 
Q 3128 4100 2886 4159 
Q 2644 4219 2406 4219 
Q 1781 4219 1451 3797 
Q 1122 3375 1075 2522 
Q 1259 2794 1537 2939 
Q 1816 3084 2150 3084 
Q 2853 3084 3261 2657 
Q 3669 2231 3669 1497 
Q 3669 778 3244 343 
Q 2819 -91 2113 -91 
Q 1303 -91 875 529 
Q 447 1150 447 2328 
Q 447 3434 972 4092 
Q 1497 4750 2381 4750 
Q 2619 4750 2861 4703 
Q 3103 4656 3366 4563 
z
" id="DejaVuSans-36" transform="scale(0.015625)"/>
       </defs>
       <use xlink:href="#DejaVuSans-36"/>
       <use x="63.623047" xlink:href="#DejaVuSans-30"/>
      </g>
     </g>
    </g>
    <g id="xtick_5">
     <g id="line2d_5">
      <g>
       <use style="stroke:#000000;stroke-width:0.8;" x="312.094215" xlink:href="#m2400abdb26" y="252"/>
      </g>
     </g>
     <g id="text_5">
      <!-- 80 -->
      <g transform="translate(305.731715 266.598437)scale(0.1 -0.1)">
       <defs>
        <path d="M 2034 2216 
Q 1584 2216 1326 1975 
Q 1069 1734 1069 1313 
Q 1069 891 1326 650 
Q 1584 409 2034 409 
Q 2484 409 2743 651 
Q 3003 894 3003 1313 
Q 3003 1734 2745 1975 
Q 2488 2216 2034 2216 
z
M 1403 2484 
Q 997 2584 770 2862 
Q 544 3141 544 3541 
Q 544 4100 942 4425 
Q 1341 4750 2034 4750 
Q 2731 4750 3128 4425 
Q 3525 4100 3525 3541 
Q 3525 3141 3298 2862 
Q 3072 2584 2669 2484 
Q 3125 2378 3379 2068 
Q 3634 1759 3634 1313 
Q 3634 634 3220 271 
Q 2806 -91 2034 -91 
Q 1263 -91 848 271 
Q 434 634 434 1313 
Q 434 1759 690 2068 
Q 947 2378 1403 2484 
z
M 1172 3481 
Q 1172 3119 1398 2916 
Q 1625 2713 2034 2713 
Q 2441 2713 2670 2916 
Q 2900 3119 2900 3481 
Q 2900 3844 2670 4047 
Q 2441 4250 2034 4250 
Q 1625 4250 1398 4047 
Q 1172 3844 1172 3481 
z
" id="DejaVuSans-38" transform="scale(0.015625)"/>
       </defs>
       <use xlink:href="#DejaVuSans-38"/>
       <use x="63.623047" xlink:href="#DejaVuSans-30"/>
      </g>
     </g>
    </g>
    <g id="xtick_6">
     <g id="line2d_6">
      <g>
       <use style="stroke:#000000;stroke-width:0.8;" x="373.581818" xlink:href="#m2400abdb26" y="252"/>
      </g>
     </g>
     <g id="text_6">
      <!-- 100 -->
      <g transform="translate(364.038068 266.598437)scale(0.1 -0.1)">
       <defs>
        <path d="M 794 531 
L 1825 531 
L 1825 4091 
L 703 3866 
L 703 4441 
L 1819 4666 
L 2450 4666 
L 2450 531 
L 3481 531 
L 3481 0 
L 794 0 
L 794 531 
z
" id="DejaVuSans-31" transform="scale(0.015625)"/>
       </defs>
       <use xlink:href="#DejaVuSans-31"/>
       <use x="63.623047" xlink:href="#DejaVuSans-30"/>
       <use x="127.246094" xlink:href="#DejaVuSans-30"/>
      </g>
     </g>
    </g>
    <g id="text_7">
     <!-- iteration -->
     <g transform="translate(200.277344 280.276563)scale(0.1 -0.1)">
      <defs>
       <path d="M 603 3500 
L 1178 3500 
L 1178 0 
L 603 0 
L 603 3500 
z
M 603 4863 
L 1178 4863 
L 1178 4134 
L 603 4134 
L 603 4863 
z
" id="DejaVuSans-69" transform="scale(0.015625)"/>
       <path d="M 1172 4494 
L 1172 3500 
L 2356 3500 
L 2356 3053 
L 1172 3053 
L 1172 1153 
Q 1172 725 1289 603 
Q 1406 481 1766 481 
L 2356 481 
L 2356 0 
L 1766 0 
Q 1100 0 847 248 
Q 594 497 594 1153 
L 594 3053 
L 172 3053 
L 172 3500 
L 594 3500 
L 594 4494 
L 1172 4494 
z
" id="DejaVuSans-74" transform="scale(0.015625)"/>
       <path d="M 3597 1894 
L 3597 1613 
L 953 1613 
Q 991 1019 1311 708 
Q 1631 397 2203 397 
Q 2534 397 2845 478 
Q 3156 559 3463 722 
L 3463 178 
Q 3153 47 2828 -22 
Q 2503 -91 2169 -91 
Q 1331 -91 842 396 
Q 353 884 353 1716 
Q 353 2575 817 3079 
Q 1281 3584 2069 3584 
Q 2775 3584 3186 3129 
Q 3597 2675 3597 1894 
z
M 3022 2063 
Q 3016 2534 2758 2815 
Q 2500 3097 2075 3097 
Q 1594 3097 1305 2825 
Q 1016 2553 972 2059 
L 3022 2063 
z
" id="DejaVuSans-65" transform="scale(0.015625)"/>
       <path d="M 2631 2963 
Q 2534 3019 2420 3045 
Q 2306 3072 2169 3072 
Q 1681 3072 1420 2755 
Q 1159 2438 1159 1844 
L 1159 0 
L 581 0 
L 581 3500 
L 1159 3500 
L 1159 2956 
Q 1341 3275 1631 3429 
Q 1922 3584 2338 3584 
Q 2397 3584 2469 3576 
Q 2541 3569 2628 3553 
L 2631 2963 
z
" id="DejaVuSans-72" transform="scale(0.015625)"/>
       <path d="M 2194 1759 
Q 1497 1759 1228 1600 
Q 959 1441 959 1056 
Q 959 750 1161 570 
Q 1363 391 1709 391 
Q 2188 391 2477 730 
Q 2766 1069 2766 1631 
L 2766 1759 
L 2194 1759 
z
M 3341 1997 
L 3341 0 
L 2766 0 
L 2766 531 
Q 2569 213 2275 61 
Q 1981 -91 1556 -91 
Q 1019 -91 701 211 
Q 384 513 384 1019 
Q 384 1609 779 1909 
Q 1175 2209 1959 2209 
L 2766 2209 
L 2766 2266 
Q 2766 2663 2505 2880 
Q 2244 3097 1772 3097 
Q 1472 3097 1187 3025 
Q 903 2953 641 2809 
L 641 3341 
Q 956 3463 1253 3523 
Q 1550 3584 1831 3584 
Q 2591 3584 2966 3190 
Q 3341 2797 3341 1997 
z
" id="DejaVuSans-61" transform="scale(0.015625)"/>
       <path d="M 1959 3097 
Q 1497 3097 1228 2736 
Q 959 2375 959 1747 
Q 959 1119 1226 758 
Q 1494 397 1959 397 
Q 2419 397 2687 759 
Q 2956 1122 2956 1747 
Q 2956 2369 2687 2733 
Q 2419 3097 1959 3097 
z
M 1959 3584 
Q 2709 3584 3137 3096 
Q 3566 2609 3566 1747 
Q 3566 888 3137 398 
Q 2709 -91 1959 -91 
Q 1206 -91 779 398 
Q 353 888 353 1747 
Q 353 2609 779 3096 
Q 1206 3584 1959 3584 
z
" id="DejaVuSans-6f" transform="scale(0.015625)"/>
       <path d="M 3513 2113 
L 3513 0 
L 2938 0 
L 2938 2094 
Q 2938 2591 2744 2837 
Q 2550 3084 2163 3084 
Q 1697 3084 1428 2787 
Q 1159 2491 1159 1978 
L 1159 0 
L 581 0 
L 581 3500 
L 1159 3500 
L 1159 2956 
Q 1366 3272 1645 3428 
Q 1925 3584 2291 3584 
Q 2894 3584 3203 3211 
Q 3513 2838 3513 2113 
z
" id="DejaVuSans-6e" transform="scale(0.015625)"/>
      </defs>
      <use xlink:href="#DejaVuSans-69"/>
      <use x="27.783203" xlink:href="#DejaVuSans-74"/>
      <use x="66.992188" xlink:href="#DejaVuSans-65"/>
      <use x="128.515625" xlink:href="#DejaVuSans-72"/>
      <use x="169.628906" xlink:href="#DejaVuSans-61"/>
      <use x="230.908203" xlink:href="#DejaVuSans-74"/>
      <use x="270.117188" xlink:href="#DejaVuSans-69"/>
      <use x="297.900391" xlink:href="#DejaVuSans-6f"/>
      <use x="359.082031" xlink:href="#DejaVuSans-6e"/>
     </g>
    </g>
   </g>
   <g id="matplotlib.axis_2">
    <g id="ytick_1">
     <g id="line2d_7">
      <defs>
       <path d="M 0 0 
L -3.5 0 
" id="mac12aaf4b9" style="stroke:#000000;stroke-width:0.8;"/>
      </defs>
      <g>
       <use style="stroke:#000000;stroke-width:0.8;" x="54" xlink:href="#mac12aaf4b9" y="249.16798"/>
      </g>
     </g>
     <g id="text_8">
      <!-- 0.0 -->
      <g transform="translate(31.096875 252.967199)scale(0.1 -0.1)">
       <defs>
        <path d="M 684 794 
L 1344 794 
L 1344 0 
L 684 0 
L 684 794 
z
" id="DejaVuSans-2e" transform="scale(0.015625)"/>
       </defs>
       <use xlink:href="#DejaVuSans-30"/>
       <use x="63.623047" xlink:href="#DejaVuSans-2e"/>
       <use x="95.410156" xlink:href="#DejaVuSans-30"/>
      </g>
     </g>
    </g>
    <g id="ytick_2">
     <g id="line2d_8">
      <g>
       <use style="stroke:#000000;stroke-width:0.8;" x="54" xlink:href="#mac12aaf4b9" y="203.673681"/>
      </g>
     </g>
     <g id="text_9">
      <!-- 0.2 -->
      <g transform="translate(31.096875 207.4729)scale(0.1 -0.1)">
       <use xlink:href="#DejaVuSans-30"/>
       <use x="63.623047" xlink:href="#DejaVuSans-2e"/>
       <use x="95.410156" xlink:href="#DejaVuSans-32"/>
      </g>
     </g>
    </g>
    <g id="ytick_3">
     <g id="line2d_9">
      <g>
       <use style="stroke:#000000;stroke-width:0.8;" x="54" xlink:href="#mac12aaf4b9" y="158.179383"/>
      </g>
     </g>
     <g id="text_10">
      <!-- 0.4 -->
      <g transform="translate(31.096875 161.978602)scale(0.1 -0.1)">
       <use xlink:href="#DejaVuSans-30"/>
       <use x="63.623047" xlink:href="#DejaVuSans-2e"/>
       <use x="95.410156" xlink:href="#DejaVuSans-34"/>
      </g>
     </g>
    </g>
    <g id="ytick_4">
     <g id="line2d_10">
      <g>
       <use style="stroke:#000000;stroke-width:0.8;" x="54" xlink:href="#mac12aaf4b9" y="112.685084"/>
      </g>
     </g>
     <g id="text_11">
      <!-- 0.6 -->
      <g transform="translate(31.096875 116.484303)scale(0.1 -0.1)">
       <use xlink:href="#DejaVuSans-30"/>
       <use x="63.623047" xlink:href="#DejaVuSans-2e"/>
       <use x="95.410156" xlink:href="#DejaVuSans-36"/>
      </g>
     </g>
    </g>
    <g id="ytick_5">
     <g id="line2d_11">
      <g>
       <use style="stroke:#000000;stroke-width:0.8;" x="54" xlink:href="#mac12aaf4b9" y="67.190786"/>
      </g>
     </g>
     <g id="text_12">
      <!-- 0.8 -->
      <g transform="translate(31.096875 70.990004)scale(0.1 -0.1)">
       <use xlink:href="#DejaVuSans-30"/>
       <use x="63.623047" xlink:href="#DejaVuSans-2e"/>
       <use x="95.410156" xlink:href="#DejaVuSans-38"/>
      </g>
     </g>
    </g>
    <g id="text_13">
     <!-- #users -->
     <g transform="translate(25.017187 160.98)rotate(-90)scale(0.1 -0.1)">
      <defs>
       <path d="M 3272 2816 
L 2363 2816 
L 2100 1772 
L 3016 1772 
L 3272 2816 
z
M 2803 4594 
L 2478 3297 
L 3391 3297 
L 3719 4594 
L 4219 4594 
L 3897 3297 
L 4872 3297 
L 4872 2816 
L 3775 2816 
L 3519 1772 
L 4513 1772 
L 4513 1294 
L 3397 1294 
L 3072 0 
L 2572 0 
L 2894 1294 
L 1978 1294 
L 1656 0 
L 1153 0 
L 1478 1294 
L 494 1294 
L 494 1772 
L 1594 1772 
L 1856 2816 
L 850 2816 
L 850 3297 
L 1978 3297 
L 2297 4594 
L 2803 4594 
z
" id="DejaVuSans-23" transform="scale(0.015625)"/>
       <path d="M 544 1381 
L 544 3500 
L 1119 3500 
L 1119 1403 
Q 1119 906 1312 657 
Q 1506 409 1894 409 
Q 2359 409 2629 706 
Q 2900 1003 2900 1516 
L 2900 3500 
L 3475 3500 
L 3475 0 
L 2900 0 
L 2900 538 
Q 2691 219 2414 64 
Q 2138 -91 1772 -91 
Q 1169 -91 856 284 
Q 544 659 544 1381 
z
M 1991 3584 
L 1991 3584 
z
" id="DejaVuSans-75" transform="scale(0.015625)"/>
       <path d="M 2834 3397 
L 2834 2853 
Q 2591 2978 2328 3040 
Q 2066 3103 1784 3103 
Q 1356 3103 1142 2972 
Q 928 2841 928 2578 
Q 928 2378 1081 2264 
Q 1234 2150 1697 2047 
L 1894 2003 
Q 2506 1872 2764 1633 
Q 3022 1394 3022 966 
Q 3022 478 2636 193 
Q 2250 -91 1575 -91 
Q 1294 -91 989 -36 
Q 684 19 347 128 
L 347 722 
Q 666 556 975 473 
Q 1284 391 1588 391 
Q 1994 391 2212 530 
Q 2431 669 2431 922 
Q 2431 1156 2273 1281 
Q 2116 1406 1581 1522 
L 1381 1569 
Q 847 1681 609 1914 
Q 372 2147 372 2553 
Q 372 3047 722 3315 
Q 1072 3584 1716 3584 
Q 2034 3584 2315 3537 
Q 2597 3491 2834 3397 
z
" id="DejaVuSans-73" transform="scale(0.015625)"/>
      </defs>
      <use xlink:href="#DejaVuSans-23"/>
      <use x="83.789062" xlink:href="#DejaVuSans-75"/>
      <use x="147.167969" xlink:href="#DejaVuSans-73"/>
      <use x="199.267578" xlink:href="#DejaVuSans-65"/>
      <use x="260.791016" xlink:href="#DejaVuSans-72"/>
      <use x="301.904297" xlink:href="#DejaVuSans-73"/>
     </g>
    </g>
   </g>
   <g id="line2d_12">
    <path clip-path="url(#p25c5f7cd58)" d="M 69.218182 226.420831 
L 72.292562 226.420831 
L 75.366942 44.443636 
L 78.441322 44.443636 
L 81.515702 226.420831 
L 84.590083 226.420831 
L 87.664463 226.420831 
L 90.738843 226.420831 
L 93.813223 226.420831 
L 96.887603 226.193359 
L 99.961983 226.193359 
L 103.036364 226.420831 
L 106.110744 226.193359 
L 109.185124 44.443636 
L 112.259504 226.420831 
L 115.333884 226.420831 
L 118.408264 226.420831 
L 121.482645 226.193359 
L 124.557025 226.193359 
L 127.631405 226.420831 
L 130.705785 226.193359 
L 133.780165 226.420831 
L 136.854545 234.382333 
L 139.928926 226.193359 
L 143.003306 226.420831 
L 146.077686 224.82853 
L 149.152066 226.420831 
L 152.226446 226.648302 
L 155.300826 226.648302 
L 158.375207 226.648302 
L 161.449587 226.648302 
L 164.523967 226.420831 
L 167.598347 226.648302 
L 170.672727 226.648302 
L 173.747107 226.648302 
L 176.821488 226.648302 
L 179.895868 226.648302 
L 182.970248 226.648302 
L 186.044628 226.648302 
L 189.119008 226.420831 
L 192.193388 226.420831 
L 195.267769 226.420831 
L 198.342149 226.420831 
L 201.416529 223.23623 
L 204.490909 226.420831 
L 207.565289 226.420831 
L 210.639669 225.283473 
L 213.71405 226.420831 
L 216.78843 220.2791 
L 219.86281 226.420831 
L 222.93719 219.596686 
L 226.01157 226.420831 
L 229.08595 226.193359 
L 232.160331 226.193359 
L 235.234711 226.193359 
L 238.309091 226.193359 
L 241.383471 226.420831 
L 244.457851 226.193359 
L 247.532231 224.146116 
L 250.606612 226.420831 
L 253.680992 226.420831 
L 256.755372 226.420831 
L 259.829752 226.420831 
L 262.904132 226.420831 
L 265.978512 226.420831 
L 269.052893 226.420831 
L 272.127273 226.420831 
L 275.201653 206.630811 
L 278.276033 206.403339 
L 281.350413 205.03851 
L 284.424793 195.029765 
L 287.499174 192.75505 
L 290.573554 198.441837 
L 293.647934 196.622065 
L 296.722314 193.664936 
L 299.796694 192.75505 
L 302.871074 190.935278 
L 305.945455 189.342977 
L 309.019835 189.342977 
L 312.094215 188.433091 
L 315.168595 185.703433 
L 318.242975 184.566076 
L 321.317355 180.926532 
L 324.391736 180.926532 
L 327.466116 226.420831 
L 330.540496 197.759423 
L 333.614876 188.20562 
L 336.689256 187.068262 
L 339.763636 191.617692 
L 342.838017 226.420831 
L 345.912397 190.252863 
L 348.986777 185.703433 
L 352.061157 189.79792 
L 355.135537 190.252863 
L 358.209917 226.420831 
L 361.284298 226.420831 
L 364.358678 185.703433 
L 367.433058 185.930905 
L 370.507438 226.420831 
L 373.581818 226.193359 
" style="fill:none;stroke:#1f77b4;stroke-linecap:square;stroke-width:1.5;"/>
   </g>
   <g id="line2d_13">
    <path clip-path="url(#p25c5f7cd58)" d="M 69.218182 67.190786 
L 72.292562 67.190786 
L 75.366942 242.116364 
L 78.441322 239.841649 
L 81.515702 67.190786 
L 84.590083 67.190786 
L 87.664463 67.190786 
L 90.738843 67.190786 
L 93.813223 67.190786 
L 96.887603 71.512744 
L 99.961983 67.418257 
L 103.036364 70.602858 
L 106.110744 67.418257 
L 109.185124 238.931763 
L 112.259504 70.602858 
L 115.333884 70.147915 
L 118.408264 69.920444 
L 121.482645 67.418257 
L 124.557025 67.418257 
L 127.631405 69.692972 
L 130.705785 67.418257 
L 133.780165 69.238029 
L 136.854545 241.206478 
L 139.928926 67.418257 
L 143.003306 69.692972 
L 146.077686 68.783086 
L 149.152066 70.83033 
L 152.226446 71.740216 
L 155.300826 71.057801 
L 158.375207 70.147915 
L 161.449587 69.692972 
L 164.523967 69.920444 
L 167.598347 66.963314 
L 170.672727 66.963314 
L 173.747107 66.963314 
L 176.821488 70.83033 
L 179.895868 71.057801 
L 182.970248 71.285273 
L 186.044628 70.83033 
L 189.119008 67.190786 
L 192.193388 71.740216 
L 195.267769 67.190786 
L 198.342149 67.190786 
L 201.416529 70.375387 
L 204.490909 70.375387 
L 207.565289 67.190786 
L 210.639669 68.328143 
L 213.71405 67.190786 
L 216.78843 73.332516 
L 219.86281 67.190786 
L 222.93719 74.01493 
L 226.01157 67.418257 
L 229.08595 67.645729 
L 232.160331 67.645729 
L 235.234711 67.645729 
L 238.309091 67.645729 
L 241.383471 76.744588 
L 244.457851 78.109417 
L 247.532231 69.692972 
L 250.606612 76.062174 
L 253.680992 76.97206 
L 256.755372 76.744588 
L 259.829752 78.109417 
L 262.904132 67.418257 
L 265.978512 67.418257 
L 269.052893 67.418257 
L 272.127273 67.418257 
L 275.201653 87.208277 
L 278.276033 87.435749 
L 281.350413 88.800577 
L 284.424793 98.581852 
L 287.499174 100.856567 
L 290.573554 95.169779 
L 293.647934 96.989551 
L 296.722314 99.946681 
L 299.796694 100.856567 
L 302.871074 102.676339 
L 305.945455 104.268639 
L 309.019835 104.268639 
L 312.094215 105.178525 
L 315.168595 107.908183 
L 318.242975 109.04554 
L 321.317355 112.912556 
L 324.391736 112.685084 
L 327.466116 106.088411 
L 330.540496 95.852194 
L 333.614876 106.088411 
L 336.689256 106.770825 
L 339.763636 102.676339 
L 342.838017 119.054286 
L 345.912397 104.041167 
L 348.986777 108.135654 
L 352.061157 104.041167 
L 355.135537 103.358753 
L 358.209917 104.268639 
L 361.284298 105.178525 
L 364.358678 107.908183 
L 367.433058 107.680711 
L 370.507438 119.509229 
L 373.581818 114.277385 
" style="fill:none;stroke:#ff7f0e;stroke-linecap:square;stroke-width:1.5;"/>
   </g>
   <g id="line2d_14">
    <path clip-path="url(#p25c5f7cd58)" d="M 69.218182 226.420831 
L 72.292562 226.420831 
L 75.366942 233.472447 
L 78.441322 235.747162 
L 81.515702 226.420831 
L 84.590083 226.420831 
L 87.664463 226.420831 
L 90.738843 226.420831 
L 93.813223 226.420831 
L 96.887603 222.326344 
L 99.961983 226.420831 
L 103.036364 223.008758 
L 106.110744 226.420831 
L 109.185124 236.657048 
L 112.259504 223.008758 
L 115.333884 223.463701 
L 118.408264 223.691173 
L 121.482645 226.420831 
L 124.557025 226.420831 
L 127.631405 223.918644 
L 130.705785 226.420831 
L 133.780165 224.373587 
L 136.854545 44.443636 
L 139.928926 226.420831 
L 143.003306 223.918644 
L 146.077686 226.420831 
L 149.152066 222.781287 
L 152.226446 221.643929 
L 155.300826 222.326344 
L 158.375207 223.23623 
L 161.449587 223.691173 
L 164.523967 223.691173 
L 167.598347 226.420831 
L 170.672727 226.420831 
L 173.747107 226.420831 
L 176.821488 222.553815 
L 179.895868 222.326344 
L 182.970248 222.098872 
L 186.044628 222.553815 
L 189.119008 226.420831 
L 192.193388 221.871401 
L 195.267769 226.420831 
L 198.342149 226.420831 
L 201.416529 226.420831 
L 204.490909 223.23623 
L 207.565289 226.420831 
L 210.639669 226.420831 
L 213.71405 226.420831 
L 216.78843 226.420831 
L 219.86281 226.420831 
L 222.93719 226.420831 
L 226.01157 226.193359 
L 229.08595 226.193359 
L 232.160331 226.193359 
L 235.234711 226.193359 
L 238.309091 226.193359 
L 241.383471 216.867028 
L 244.457851 215.72967 
L 247.532231 226.193359 
L 250.606612 217.549442 
L 253.680992 216.639556 
L 256.755372 216.867028 
L 259.829752 215.502199 
L 262.904132 226.193359 
L 265.978512 226.193359 
L 269.052893 226.193359 
L 272.127273 226.193359 
L 275.201653 226.193359 
L 278.276033 226.193359 
L 281.350413 226.193359 
L 284.424793 226.420831 
L 287.499174 226.420831 
L 290.573554 226.420831 
L 293.647934 226.420831 
L 296.722314 226.420831 
L 299.796694 226.420831 
L 302.871074 226.420831 
L 305.945455 226.420831 
L 309.019835 226.420831 
L 312.094215 226.420831 
L 315.168595 226.420831 
L 318.242975 226.420831 
L 321.317355 226.193359 
L 324.391736 226.420831 
L 327.466116 187.523205 
L 330.540496 226.420831 
L 333.614876 225.738416 
L 336.689256 226.193359 
L 339.763636 225.738416 
L 342.838017 174.55733 
L 345.912397 225.738416 
L 348.986777 226.193359 
L 352.061157 226.193359 
L 355.135537 226.420831 
L 358.209917 189.342977 
L 361.284298 188.433091 
L 364.358678 226.420831 
L 367.433058 226.420831 
L 370.507438 174.102387 
L 373.581818 179.561703 
" style="fill:none;stroke:#2ca02c;stroke-linecap:square;stroke-width:1.5;"/>
   </g>
   <g id="patch_3">
    <path d="M 54 252 
L 54 34.56 
" style="fill:none;stroke:#000000;stroke-linecap:square;stroke-linejoin:miter;stroke-width:0.8;"/>
   </g>
   <g id="patch_4">
    <path d="M 388.8 252 
L 388.8 34.56 
" style="fill:none;stroke:#000000;stroke-linecap:square;stroke-linejoin:miter;stroke-width:0.8;"/>
   </g>
   <g id="patch_5">
    <path d="M 54 252 
L 388.8 252 
" style="fill:none;stroke:#000000;stroke-linecap:square;stroke-linejoin:miter;stroke-width:0.8;"/>
   </g>
   <g id="patch_6">
    <path d="M 54 34.56 
L 388.8 34.56 
" style="fill:none;stroke:#000000;stroke-linecap:square;stroke-linejoin:miter;stroke-width:0.8;"/>
   </g>
   <g id="text_14">
    <!-- Fraction of Users in each cluster over the simulation -->
    <g transform="translate(64.761563 28.56)scale(0.12 -0.12)">
     <defs>
      <path d="M 628 4666 
L 3309 4666 
L 3309 4134 
L 1259 4134 
L 1259 2759 
L 3109 2759 
L 3109 2228 
L 1259 2228 
L 1259 0 
L 628 0 
L 628 4666 
z
" id="DejaVuSans-46" transform="scale(0.015625)"/>
      <path d="M 3122 3366 
L 3122 2828 
Q 2878 2963 2633 3030 
Q 2388 3097 2138 3097 
Q 1578 3097 1268 2742 
Q 959 2388 959 1747 
Q 959 1106 1268 751 
Q 1578 397 2138 397 
Q 2388 397 2633 464 
Q 2878 531 3122 666 
L 3122 134 
Q 2881 22 2623 -34 
Q 2366 -91 2075 -91 
Q 1284 -91 818 406 
Q 353 903 353 1747 
Q 353 2603 823 3093 
Q 1294 3584 2113 3584 
Q 2378 3584 2631 3529 
Q 2884 3475 3122 3366 
z
" id="DejaVuSans-63" transform="scale(0.015625)"/>
      <path id="DejaVuSans-20" transform="scale(0.015625)"/>
      <path d="M 2375 4863 
L 2375 4384 
L 1825 4384 
Q 1516 4384 1395 4259 
Q 1275 4134 1275 3809 
L 1275 3500 
L 2222 3500 
L 2222 3053 
L 1275 3053 
L 1275 0 
L 697 0 
L 697 3053 
L 147 3053 
L 147 3500 
L 697 3500 
L 697 3744 
Q 697 4328 969 4595 
Q 1241 4863 1831 4863 
L 2375 4863 
z
" id="DejaVuSans-66" transform="scale(0.015625)"/>
      <path d="M 556 4666 
L 1191 4666 
L 1191 1831 
Q 1191 1081 1462 751 
Q 1734 422 2344 422 
Q 2950 422 3222 751 
Q 3494 1081 3494 1831 
L 3494 4666 
L 4128 4666 
L 4128 1753 
Q 4128 841 3676 375 
Q 3225 -91 2344 -91 
Q 1459 -91 1007 375 
Q 556 841 556 1753 
L 556 4666 
z
" id="DejaVuSans-55" transform="scale(0.015625)"/>
      <path d="M 3513 2113 
L 3513 0 
L 2938 0 
L 2938 2094 
Q 2938 2591 2744 2837 
Q 2550 3084 2163 3084 
Q 1697 3084 1428 2787 
Q 1159 2491 1159 1978 
L 1159 0 
L 581 0 
L 581 4863 
L 1159 4863 
L 1159 2956 
Q 1366 3272 1645 3428 
Q 1925 3584 2291 3584 
Q 2894 3584 3203 3211 
Q 3513 2838 3513 2113 
z
" id="DejaVuSans-68" transform="scale(0.015625)"/>
      <path d="M 603 4863 
L 1178 4863 
L 1178 0 
L 603 0 
L 603 4863 
z
" id="DejaVuSans-6c" transform="scale(0.015625)"/>
      <path d="M 191 3500 
L 800 3500 
L 1894 563 
L 2988 3500 
L 3597 3500 
L 2284 0 
L 1503 0 
L 191 3500 
z
" id="DejaVuSans-76" transform="scale(0.015625)"/>
      <path d="M 3328 2828 
Q 3544 3216 3844 3400 
Q 4144 3584 4550 3584 
Q 5097 3584 5394 3201 
Q 5691 2819 5691 2113 
L 5691 0 
L 5113 0 
L 5113 2094 
Q 5113 2597 4934 2840 
Q 4756 3084 4391 3084 
Q 3944 3084 3684 2787 
Q 3425 2491 3425 1978 
L 3425 0 
L 2847 0 
L 2847 2094 
Q 2847 2600 2669 2842 
Q 2491 3084 2119 3084 
Q 1678 3084 1418 2786 
Q 1159 2488 1159 1978 
L 1159 0 
L 581 0 
L 581 3500 
L 1159 3500 
L 1159 2956 
Q 1356 3278 1631 3431 
Q 1906 3584 2284 3584 
Q 2666 3584 2933 3390 
Q 3200 3197 3328 2828 
z
" id="DejaVuSans-6d" transform="scale(0.015625)"/>
     </defs>
     <use xlink:href="#DejaVuSans-46"/>
     <use x="50.269531" xlink:href="#DejaVuSans-72"/>
     <use x="91.382812" xlink:href="#DejaVuSans-61"/>
     <use x="152.662109" xlink:href="#DejaVuSans-63"/>
     <use x="207.642578" xlink:href="#DejaVuSans-74"/>
     <use x="246.851562" xlink:href="#DejaVuSans-69"/>
     <use x="274.634766" xlink:href="#DejaVuSans-6f"/>
     <use x="335.816406" xlink:href="#DejaVuSans-6e"/>
     <use x="399.195312" xlink:href="#DejaVuSans-20"/>
     <use x="430.982422" xlink:href="#DejaVuSans-6f"/>
     <use x="492.164062" xlink:href="#DejaVuSans-66"/>
     <use x="527.369141" xlink:href="#DejaVuSans-20"/>
     <use x="559.15625" xlink:href="#DejaVuSans-55"/>
     <use x="632.349609" xlink:href="#DejaVuSans-73"/>
     <use x="684.449219" xlink:href="#DejaVuSans-65"/>
     <use x="745.972656" xlink:href="#DejaVuSans-72"/>
     <use x="787.085938" xlink:href="#DejaVuSans-73"/>
     <use x="839.185547" xlink:href="#DejaVuSans-20"/>
     <use x="870.972656" xlink:href="#DejaVuSans-69"/>
     <use x="898.755859" xlink:href="#DejaVuSans-6e"/>
     <use x="962.134766" xlink:href="#DejaVuSans-20"/>
     <use x="993.921875" xlink:href="#DejaVuSans-65"/>
     <use x="1055.445312" xlink:href="#DejaVuSans-61"/>
     <use x="1116.724609" xlink:href="#DejaVuSans-63"/>
     <use x="1171.705078" xlink:href="#DejaVuSans-68"/>
     <use x="1235.083984" xlink:href="#DejaVuSans-20"/>
     <use x="1266.871094" xlink:href="#DejaVuSans-63"/>
     <use x="1321.851562" xlink:href="#DejaVuSans-6c"/>
     <use x="1349.634766" xlink:href="#DejaVuSans-75"/>
     <use x="1413.013672" xlink:href="#DejaVuSans-73"/>
     <use x="1465.113281" xlink:href="#DejaVuSans-74"/>
     <use x="1504.322266" xlink:href="#DejaVuSans-65"/>
     <use x="1565.845703" xlink:href="#DejaVuSans-72"/>
     <use x="1606.958984" xlink:href="#DejaVuSans-20"/>
     <use x="1638.746094" xlink:href="#DejaVuSans-6f"/>
     <use x="1699.927734" xlink:href="#DejaVuSans-76"/>
     <use x="1759.107422" xlink:href="#DejaVuSans-65"/>
     <use x="1820.630859" xlink:href="#DejaVuSans-72"/>
     <use x="1861.744141" xlink:href="#DejaVuSans-20"/>
     <use x="1893.53125" xlink:href="#DejaVuSans-74"/>
     <use x="1932.740234" xlink:href="#DejaVuSans-68"/>
     <use x="1996.119141" xlink:href="#DejaVuSans-65"/>
     <use x="2057.642578" xlink:href="#DejaVuSans-20"/>
     <use x="2089.429688" xlink:href="#DejaVuSans-73"/>
     <use x="2141.529297" xlink:href="#DejaVuSans-69"/>
     <use x="2169.3125" xlink:href="#DejaVuSans-6d"/>
     <use x="2266.724609" xlink:href="#DejaVuSans-75"/>
     <use x="2330.103516" xlink:href="#DejaVuSans-6c"/>
     <use x="2357.886719" xlink:href="#DejaVuSans-61"/>
     <use x="2419.166016" xlink:href="#DejaVuSans-74"/>
     <use x="2458.375" xlink:href="#DejaVuSans-69"/>
     <use x="2486.158203" xlink:href="#DejaVuSans-6f"/>
     <use x="2547.339844" xlink:href="#DejaVuSans-6e"/>
    </g>
   </g>
   <g id="legend_1">
    <g id="patch_7">
     <path d="M 339.829688 86.594375 
L 381.8 86.594375 
Q 383.8 86.594375 383.8 84.594375 
L 383.8 41.56 
Q 383.8 39.56 381.8 39.56 
L 339.829688 39.56 
Q 337.829688 39.56 337.829688 41.56 
L 337.829688 84.594375 
Q 337.829688 86.594375 339.829688 86.594375 
z
" style="fill:#ffffff;opacity:0.8;stroke:#cccccc;stroke-linejoin:miter;"/>
    </g>
    <g id="line2d_15">
     <path d="M 341.829688 47.658438 
L 361.829688 47.658438 
" style="fill:none;stroke:#1f77b4;stroke-linecap:square;stroke-width:1.5;"/>
    </g>
    <g id="line2d_16"/>
    <g id="text_15">
     <!-- -1 -->
     <g transform="translate(369.829688 51.158438)scale(0.1 -0.1)">
      <defs>
       <path d="M 313 2009 
L 1997 2009 
L 1997 1497 
L 313 1497 
L 313 2009 
z
" id="DejaVuSans-2d" transform="scale(0.015625)"/>
      </defs>
      <use xlink:href="#DejaVuSans-2d"/>
      <use x="36.083984" xlink:href="#DejaVuSans-31"/>
     </g>
    </g>
    <g id="line2d_17">
     <path d="M 341.829688 62.336563 
L 361.829688 62.336563 
" style="fill:none;stroke:#ff7f0e;stroke-linecap:square;stroke-width:1.5;"/>
    </g>
    <g id="line2d_18"/>
    <g id="text_16">
     <!-- 0 -->
     <g transform="translate(369.829688 65.836563)scale(0.1 -0.1)">
      <use xlink:href="#DejaVuSans-30"/>
     </g>
    </g>
    <g id="line2d_19">
     <path d="M 341.829688 77.014688 
L 361.829688 77.014688 
" style="fill:none;stroke:#2ca02c;stroke-linecap:square;stroke-width:1.5;"/>
    </g>
    <g id="line2d_20"/>
    <g id="text_17">
     <!-- 1 -->
     <g transform="translate(369.829688 80.514688)scale(0.1 -0.1)">
      <use xlink:href="#DejaVuSans-31"/>
     </g>
    </g>
   </g>
  </g>
 </g>
 <defs>
  <clipPath id="p25c5f7cd58">
   <rect height="217.44" width="334.8" x="54" y="34.56"/>
  </clipPath>
 </defs>
</svg>
