<?xml version="1.0" encoding="utf-8" standalone="no"?>
<!DOCTYPE svg PUBLIC "-//W3C//DTD SVG 1.1//EN"
  "http://www.w3.org/Graphics/SVG/1.1/DTD/svg11.dtd">
<svg height="288pt" version="1.1" viewBox="0 0 432 288" width="432pt" xmlns="http://www.w3.org/2000/svg" xmlns:xlink="http://www.w3.org/1999/xlink">
 <metadata>
  <rdf:RDF xmlns:cc="http://creativecommons.org/ns#" xmlns:dc="http://purl.org/dc/elements/1.1/" xmlns:rdf="http://www.w3.org/1999/02/22-rdf-syntax-ns#">
   <cc:Work>
    <dc:type rdf:resource="http://purl.org/dc/dcmitype/StillImage"/>
    <dc:date>2021-06-22T22:09:28.104791</dc:date>
    <dc:format>image/svg+xml</dc:format>
    <dc:creator>
     <cc:Agent>
      <dc:title>Matplotlib v3.4.0, https://matplotlib.org/</dc:title>
     </cc:Agent>
    </dc:creator>
   </cc:Work>
  </rdf:RDF>
 </metadata>
 <defs>
  <style type="text/css">*{stroke-linecap:butt;stroke-linejoin:round;}</style>
 </defs>
 <g id="figure_1">
  <g id="patch_1">
   <path d="M 0 288 
L 432 288 
L 432 0 
L 0 0 
z
" style="fill:none;"/>
  </g>
  <g id="axes_1">
   <g id="patch_2">
    <path d="M 54 252 
L 388.8 252 
L 388.8 34.56 
L 54 34.56 
z
" style="fill:#ffffff;"/>
   </g>
   <g id="matplotlib.axis_1">
    <g id="xtick_1">
     <g id="line2d_1">
      <defs>
       <path d="M 0 0 
L 0 3.5 
" id="ma4b38d4fd6" style="stroke:#000000;stroke-width:0.8;"/>
      </defs>
      <g>
       <use style="stroke:#000000;stroke-width:0.8;" x="66.143802" xlink:href="#ma4b38d4fd6" y="252"/>
      </g>
     </g>
     <g id="text_1">
      <!-- 0 -->
      <g transform="translate(62.962552 266.598437)scale(0.1 -0.1)">
       <defs>
        <path d="M 2034 4250 
Q 1547 4250 1301 3770 
Q 1056 3291 1056 2328 
Q 1056 1369 1301 889 
Q 1547 409 2034 409 
Q 2525 409 2770 889 
Q 3016 1369 3016 2328 
Q 3016 3291 2770 3770 
Q 2525 4250 2034 4250 
z
M 2034 4750 
Q 2819 4750 3233 4129 
Q 3647 3509 3647 2328 
Q 3647 1150 3233 529 
Q 2819 -91 2034 -91 
Q 1250 -91 836 529 
Q 422 1150 422 2328 
Q 422 3509 836 4129 
Q 1250 4750 2034 4750 
z
" id="DejaVuSans-30" transform="scale(0.015625)"/>
       </defs>
       <use xlink:href="#DejaVuSans-30"/>
      </g>
     </g>
    </g>
    <g id="xtick_2">
     <g id="line2d_2">
      <g>
       <use style="stroke:#000000;stroke-width:0.8;" x="127.631405" xlink:href="#ma4b38d4fd6" y="252"/>
      </g>
     </g>
     <g id="text_2">
      <!-- 20 -->
      <g transform="translate(121.268905 266.598437)scale(0.1 -0.1)">
       <defs>
        <path d="M 1228 531 
L 3431 531 
L 3431 0 
L 469 0 
L 469 531 
Q 828 903 1448 1529 
Q 2069 2156 2228 2338 
Q 2531 2678 2651 2914 
Q 2772 3150 2772 3378 
Q 2772 3750 2511 3984 
Q 2250 4219 1831 4219 
Q 1534 4219 1204 4116 
Q 875 4013 500 3803 
L 500 4441 
Q 881 4594 1212 4672 
Q 1544 4750 1819 4750 
Q 2544 4750 2975 4387 
Q 3406 4025 3406 3419 
Q 3406 3131 3298 2873 
Q 3191 2616 2906 2266 
Q 2828 2175 2409 1742 
Q 1991 1309 1228 531 
z
" id="DejaVuSans-32" transform="scale(0.015625)"/>
       </defs>
       <use xlink:href="#DejaVuSans-32"/>
       <use x="63.623047" xlink:href="#DejaVuSans-30"/>
      </g>
     </g>
    </g>
    <g id="xtick_3">
     <g id="line2d_3">
      <g>
       <use style="stroke:#000000;stroke-width:0.8;" x="189.119008" xlink:href="#ma4b38d4fd6" y="252"/>
      </g>
     </g>
     <g id="text_3">
      <!-- 40 -->
      <g transform="translate(182.756508 266.598437)scale(0.1 -0.1)">
       <defs>
        <path d="M 2419 4116 
L 825 1625 
L 2419 1625 
L 2419 4116 
z
M 2253 4666 
L 3047 4666 
L 3047 1625 
L 3713 1625 
L 3713 1100 
L 3047 1100 
L 3047 0 
L 2419 0 
L 2419 1100 
L 313 1100 
L 313 1709 
L 2253 4666 
z
" id="DejaVuSans-34" transform="scale(0.015625)"/>
       </defs>
       <use xlink:href="#DejaVuSans-34"/>
       <use x="63.623047" xlink:href="#DejaVuSans-30"/>
      </g>
     </g>
    </g>
    <g id="xtick_4">
     <g id="line2d_4">
      <g>
       <use style="stroke:#000000;stroke-width:0.8;" x="250.606612" xlink:href="#ma4b38d4fd6" y="252"/>
      </g>
     </g>
     <g id="text_4">
      <!-- 60 -->
      <g transform="translate(244.244112 266.598437)scale(0.1 -0.1)">
       <defs>
        <path d="M 2113 2584 
Q 1688 2584 1439 2293 
Q 1191 2003 1191 1497 
Q 1191 994 1439 701 
Q 1688 409 2113 409 
Q 2538 409 2786 701 
Q 3034 994 3034 1497 
Q 3034 2003 2786 2293 
Q 2538 2584 2113 2584 
z
M 3366 4563 
L 3366 3988 
Q 3128 4100 2886 4159 
Q 2644 4219 2406 4219 
Q 1781 4219 1451 3797 
Q 1122 3375 1075 2522 
Q 1259 2794 1537 2939 
Q 1816 3084 2150 3084 
Q 2853 3084 3261 2657 
Q 3669 2231 3669 1497 
Q 3669 778 3244 343 
Q 2819 -91 2113 -91 
Q 1303 -91 875 529 
Q 447 1150 447 2328 
Q 447 3434 972 4092 
Q 1497 4750 2381 4750 
Q 2619 4750 2861 4703 
Q 3103 4656 3366 4563 
z
" id="DejaVuSans-36" transform="scale(0.015625)"/>
       </defs>
       <use xlink:href="#DejaVuSans-36"/>
       <use x="63.623047" xlink:href="#DejaVuSans-30"/>
      </g>
     </g>
    </g>
    <g id="xtick_5">
     <g id="line2d_5">
      <g>
       <use style="stroke:#000000;stroke-width:0.8;" x="312.094215" xlink:href="#ma4b38d4fd6" y="252"/>
      </g>
     </g>
     <g id="text_5">
      <!-- 80 -->
      <g transform="translate(305.731715 266.598437)scale(0.1 -0.1)">
       <defs>
        <path d="M 2034 2216 
Q 1584 2216 1326 1975 
Q 1069 1734 1069 1313 
Q 1069 891 1326 650 
Q 1584 409 2034 409 
Q 2484 409 2743 651 
Q 3003 894 3003 1313 
Q 3003 1734 2745 1975 
Q 2488 2216 2034 2216 
z
M 1403 2484 
Q 997 2584 770 2862 
Q 544 3141 544 3541 
Q 544 4100 942 4425 
Q 1341 4750 2034 4750 
Q 2731 4750 3128 4425 
Q 3525 4100 3525 3541 
Q 3525 3141 3298 2862 
Q 3072 2584 2669 2484 
Q 3125 2378 3379 2068 
Q 3634 1759 3634 1313 
Q 3634 634 3220 271 
Q 2806 -91 2034 -91 
Q 1263 -91 848 271 
Q 434 634 434 1313 
Q 434 1759 690 2068 
Q 947 2378 1403 2484 
z
M 1172 3481 
Q 1172 3119 1398 2916 
Q 1625 2713 2034 2713 
Q 2441 2713 2670 2916 
Q 2900 3119 2900 3481 
Q 2900 3844 2670 4047 
Q 2441 4250 2034 4250 
Q 1625 4250 1398 4047 
Q 1172 3844 1172 3481 
z
" id="DejaVuSans-38" transform="scale(0.015625)"/>
       </defs>
       <use xlink:href="#DejaVuSans-38"/>
       <use x="63.623047" xlink:href="#DejaVuSans-30"/>
      </g>
     </g>
    </g>
    <g id="xtick_6">
     <g id="line2d_6">
      <g>
       <use style="stroke:#000000;stroke-width:0.8;" x="373.581818" xlink:href="#ma4b38d4fd6" y="252"/>
      </g>
     </g>
     <g id="text_6">
      <!-- 100 -->
      <g transform="translate(364.038068 266.598437)scale(0.1 -0.1)">
       <defs>
        <path d="M 794 531 
L 1825 531 
L 1825 4091 
L 703 3866 
L 703 4441 
L 1819 4666 
L 2450 4666 
L 2450 531 
L 3481 531 
L 3481 0 
L 794 0 
L 794 531 
z
" id="DejaVuSans-31" transform="scale(0.015625)"/>
       </defs>
       <use xlink:href="#DejaVuSans-31"/>
       <use x="63.623047" xlink:href="#DejaVuSans-30"/>
       <use x="127.246094" xlink:href="#DejaVuSans-30"/>
      </g>
     </g>
    </g>
    <g id="text_7">
     <!-- iteration -->
     <g transform="translate(200.277344 280.276563)scale(0.1 -0.1)">
      <defs>
       <path d="M 603 3500 
L 1178 3500 
L 1178 0 
L 603 0 
L 603 3500 
z
M 603 4863 
L 1178 4863 
L 1178 4134 
L 603 4134 
L 603 4863 
z
" id="DejaVuSans-69" transform="scale(0.015625)"/>
       <path d="M 1172 4494 
L 1172 3500 
L 2356 3500 
L 2356 3053 
L 1172 3053 
L 1172 1153 
Q 1172 725 1289 603 
Q 1406 481 1766 481 
L 2356 481 
L 2356 0 
L 1766 0 
Q 1100 0 847 248 
Q 594 497 594 1153 
L 594 3053 
L 172 3053 
L 172 3500 
L 594 3500 
L 594 4494 
L 1172 4494 
z
" id="DejaVuSans-74" transform="scale(0.015625)"/>
       <path d="M 3597 1894 
L 3597 1613 
L 953 1613 
Q 991 1019 1311 708 
Q 1631 397 2203 397 
Q 2534 397 2845 478 
Q 3156 559 3463 722 
L 3463 178 
Q 3153 47 2828 -22 
Q 2503 -91 2169 -91 
Q 1331 -91 842 396 
Q 353 884 353 1716 
Q 353 2575 817 3079 
Q 1281 3584 2069 3584 
Q 2775 3584 3186 3129 
Q 3597 2675 3597 1894 
z
M 3022 2063 
Q 3016 2534 2758 2815 
Q 2500 3097 2075 3097 
Q 1594 3097 1305 2825 
Q 1016 2553 972 2059 
L 3022 2063 
z
" id="DejaVuSans-65" transform="scale(0.015625)"/>
       <path d="M 2631 2963 
Q 2534 3019 2420 3045 
Q 2306 3072 2169 3072 
Q 1681 3072 1420 2755 
Q 1159 2438 1159 1844 
L 1159 0 
L 581 0 
L 581 3500 
L 1159 3500 
L 1159 2956 
Q 1341 3275 1631 3429 
Q 1922 3584 2338 3584 
Q 2397 3584 2469 3576 
Q 2541 3569 2628 3553 
L 2631 2963 
z
" id="DejaVuSans-72" transform="scale(0.015625)"/>
       <path d="M 2194 1759 
Q 1497 1759 1228 1600 
Q 959 1441 959 1056 
Q 959 750 1161 570 
Q 1363 391 1709 391 
Q 2188 391 2477 730 
Q 2766 1069 2766 1631 
L 2766 1759 
L 2194 1759 
z
M 3341 1997 
L 3341 0 
L 2766 0 
L 2766 531 
Q 2569 213 2275 61 
Q 1981 -91 1556 -91 
Q 1019 -91 701 211 
Q 384 513 384 1019 
Q 384 1609 779 1909 
Q 1175 2209 1959 2209 
L 2766 2209 
L 2766 2266 
Q 2766 2663 2505 2880 
Q 2244 3097 1772 3097 
Q 1472 3097 1187 3025 
Q 903 2953 641 2809 
L 641 3341 
Q 956 3463 1253 3523 
Q 1550 3584 1831 3584 
Q 2591 3584 2966 3190 
Q 3341 2797 3341 1997 
z
" id="DejaVuSans-61" transform="scale(0.015625)"/>
       <path d="M 1959 3097 
Q 1497 3097 1228 2736 
Q 959 2375 959 1747 
Q 959 1119 1226 758 
Q 1494 397 1959 397 
Q 2419 397 2687 759 
Q 2956 1122 2956 1747 
Q 2956 2369 2687 2733 
Q 2419 3097 1959 3097 
z
M 1959 3584 
Q 2709 3584 3137 3096 
Q 3566 2609 3566 1747 
Q 3566 888 3137 398 
Q 2709 -91 1959 -91 
Q 1206 -91 779 398 
Q 353 888 353 1747 
Q 353 2609 779 3096 
Q 1206 3584 1959 3584 
z
" id="DejaVuSans-6f" transform="scale(0.015625)"/>
       <path d="M 3513 2113 
L 3513 0 
L 2938 0 
L 2938 2094 
Q 2938 2591 2744 2837 
Q 2550 3084 2163 3084 
Q 1697 3084 1428 2787 
Q 1159 2491 1159 1978 
L 1159 0 
L 581 0 
L 581 3500 
L 1159 3500 
L 1159 2956 
Q 1366 3272 1645 3428 
Q 1925 3584 2291 3584 
Q 2894 3584 3203 3211 
Q 3513 2838 3513 2113 
z
" id="DejaVuSans-6e" transform="scale(0.015625)"/>
      </defs>
      <use xlink:href="#DejaVuSans-69"/>
      <use x="27.783203" xlink:href="#DejaVuSans-74"/>
      <use x="66.992188" xlink:href="#DejaVuSans-65"/>
      <use x="128.515625" xlink:href="#DejaVuSans-72"/>
      <use x="169.628906" xlink:href="#DejaVuSans-61"/>
      <use x="230.908203" xlink:href="#DejaVuSans-74"/>
      <use x="270.117188" xlink:href="#DejaVuSans-69"/>
      <use x="297.900391" xlink:href="#DejaVuSans-6f"/>
      <use x="359.082031" xlink:href="#DejaVuSans-6e"/>
     </g>
    </g>
   </g>
   <g id="matplotlib.axis_2">
    <g id="ytick_1">
     <g id="line2d_7">
      <defs>
       <path d="M 0 0 
L -3.5 0 
" id="m634b2752ec" style="stroke:#000000;stroke-width:0.8;"/>
      </defs>
      <g>
       <use style="stroke:#000000;stroke-width:0.8;" x="54" xlink:href="#m634b2752ec" y="251.160214"/>
      </g>
     </g>
     <g id="text_8">
      <!-- 0.0 -->
      <g transform="translate(31.096875 254.959433)scale(0.1 -0.1)">
       <defs>
        <path d="M 684 794 
L 1344 794 
L 1344 0 
L 684 0 
L 684 794 
z
" id="DejaVuSans-2e" transform="scale(0.015625)"/>
       </defs>
       <use xlink:href="#DejaVuSans-30"/>
       <use x="63.623047" xlink:href="#DejaVuSans-2e"/>
       <use x="95.410156" xlink:href="#DejaVuSans-30"/>
      </g>
     </g>
    </g>
    <g id="ytick_2">
     <g id="line2d_8">
      <g>
       <use style="stroke:#000000;stroke-width:0.8;" x="54" xlink:href="#m634b2752ec" y="225.320642"/>
      </g>
     </g>
     <g id="text_9">
      <!-- 0.1 -->
      <g transform="translate(31.096875 229.11986)scale(0.1 -0.1)">
       <use xlink:href="#DejaVuSans-30"/>
       <use x="63.623047" xlink:href="#DejaVuSans-2e"/>
       <use x="95.410156" xlink:href="#DejaVuSans-31"/>
      </g>
     </g>
    </g>
    <g id="ytick_3">
     <g id="line2d_9">
      <g>
       <use style="stroke:#000000;stroke-width:0.8;" x="54" xlink:href="#m634b2752ec" y="199.48107"/>
      </g>
     </g>
     <g id="text_10">
      <!-- 0.2 -->
      <g transform="translate(31.096875 203.280288)scale(0.1 -0.1)">
       <use xlink:href="#DejaVuSans-30"/>
       <use x="63.623047" xlink:href="#DejaVuSans-2e"/>
       <use x="95.410156" xlink:href="#DejaVuSans-32"/>
      </g>
     </g>
    </g>
    <g id="ytick_4">
     <g id="line2d_10">
      <g>
       <use style="stroke:#000000;stroke-width:0.8;" x="54" xlink:href="#m634b2752ec" y="173.641497"/>
      </g>
     </g>
     <g id="text_11">
      <!-- 0.3 -->
      <g transform="translate(31.096875 177.440716)scale(0.1 -0.1)">
       <defs>
        <path d="M 2597 2516 
Q 3050 2419 3304 2112 
Q 3559 1806 3559 1356 
Q 3559 666 3084 287 
Q 2609 -91 1734 -91 
Q 1441 -91 1130 -33 
Q 819 25 488 141 
L 488 750 
Q 750 597 1062 519 
Q 1375 441 1716 441 
Q 2309 441 2620 675 
Q 2931 909 2931 1356 
Q 2931 1769 2642 2001 
Q 2353 2234 1838 2234 
L 1294 2234 
L 1294 2753 
L 1863 2753 
Q 2328 2753 2575 2939 
Q 2822 3125 2822 3475 
Q 2822 3834 2567 4026 
Q 2313 4219 1838 4219 
Q 1578 4219 1281 4162 
Q 984 4106 628 3988 
L 628 4550 
Q 988 4650 1302 4700 
Q 1616 4750 1894 4750 
Q 2613 4750 3031 4423 
Q 3450 4097 3450 3541 
Q 3450 3153 3228 2886 
Q 3006 2619 2597 2516 
z
" id="DejaVuSans-33" transform="scale(0.015625)"/>
       </defs>
       <use xlink:href="#DejaVuSans-30"/>
       <use x="63.623047" xlink:href="#DejaVuSans-2e"/>
       <use x="95.410156" xlink:href="#DejaVuSans-33"/>
      </g>
     </g>
    </g>
    <g id="ytick_5">
     <g id="line2d_11">
      <g>
       <use style="stroke:#000000;stroke-width:0.8;" x="54" xlink:href="#m634b2752ec" y="147.801925"/>
      </g>
     </g>
     <g id="text_12">
      <!-- 0.4 -->
      <g transform="translate(31.096875 151.601144)scale(0.1 -0.1)">
       <use xlink:href="#DejaVuSans-30"/>
       <use x="63.623047" xlink:href="#DejaVuSans-2e"/>
       <use x="95.410156" xlink:href="#DejaVuSans-34"/>
      </g>
     </g>
    </g>
    <g id="ytick_6">
     <g id="line2d_12">
      <g>
       <use style="stroke:#000000;stroke-width:0.8;" x="54" xlink:href="#m634b2752ec" y="121.962353"/>
      </g>
     </g>
     <g id="text_13">
      <!-- 0.5 -->
      <g transform="translate(31.096875 125.761572)scale(0.1 -0.1)">
       <defs>
        <path d="M 691 4666 
L 3169 4666 
L 3169 4134 
L 1269 4134 
L 1269 2991 
Q 1406 3038 1543 3061 
Q 1681 3084 1819 3084 
Q 2600 3084 3056 2656 
Q 3513 2228 3513 1497 
Q 3513 744 3044 326 
Q 2575 -91 1722 -91 
Q 1428 -91 1123 -41 
Q 819 9 494 109 
L 494 744 
Q 775 591 1075 516 
Q 1375 441 1709 441 
Q 2250 441 2565 725 
Q 2881 1009 2881 1497 
Q 2881 1984 2565 2268 
Q 2250 2553 1709 2553 
Q 1456 2553 1204 2497 
Q 953 2441 691 2322 
L 691 4666 
z
" id="DejaVuSans-35" transform="scale(0.015625)"/>
       </defs>
       <use xlink:href="#DejaVuSans-30"/>
       <use x="63.623047" xlink:href="#DejaVuSans-2e"/>
       <use x="95.410156" xlink:href="#DejaVuSans-35"/>
      </g>
     </g>
    </g>
    <g id="ytick_7">
     <g id="line2d_13">
      <g>
       <use style="stroke:#000000;stroke-width:0.8;" x="54" xlink:href="#m634b2752ec" y="96.122781"/>
      </g>
     </g>
     <g id="text_14">
      <!-- 0.6 -->
      <g transform="translate(31.096875 99.921999)scale(0.1 -0.1)">
       <use xlink:href="#DejaVuSans-30"/>
       <use x="63.623047" xlink:href="#DejaVuSans-2e"/>
       <use x="95.410156" xlink:href="#DejaVuSans-36"/>
      </g>
     </g>
    </g>
    <g id="ytick_8">
     <g id="line2d_14">
      <g>
       <use style="stroke:#000000;stroke-width:0.8;" x="54" xlink:href="#m634b2752ec" y="70.283209"/>
      </g>
     </g>
     <g id="text_15">
      <!-- 0.7 -->
      <g transform="translate(31.096875 74.082427)scale(0.1 -0.1)">
       <defs>
        <path d="M 525 4666 
L 3525 4666 
L 3525 4397 
L 1831 0 
L 1172 0 
L 2766 4134 
L 525 4134 
L 525 4666 
z
" id="DejaVuSans-37" transform="scale(0.015625)"/>
       </defs>
       <use xlink:href="#DejaVuSans-30"/>
       <use x="63.623047" xlink:href="#DejaVuSans-2e"/>
       <use x="95.410156" xlink:href="#DejaVuSans-37"/>
      </g>
     </g>
    </g>
    <g id="ytick_9">
     <g id="line2d_15">
      <g>
       <use style="stroke:#000000;stroke-width:0.8;" x="54" xlink:href="#m634b2752ec" y="44.443636"/>
      </g>
     </g>
     <g id="text_16">
      <!-- 0.8 -->
      <g transform="translate(31.096875 48.242855)scale(0.1 -0.1)">
       <use xlink:href="#DejaVuSans-30"/>
       <use x="63.623047" xlink:href="#DejaVuSans-2e"/>
       <use x="95.410156" xlink:href="#DejaVuSans-38"/>
      </g>
     </g>
    </g>
    <g id="text_17">
     <!-- #users -->
     <g transform="translate(25.017187 160.98)rotate(-90)scale(0.1 -0.1)">
      <defs>
       <path d="M 3272 2816 
L 2363 2816 
L 2100 1772 
L 3016 1772 
L 3272 2816 
z
M 2803 4594 
L 2478 3297 
L 3391 3297 
L 3719 4594 
L 4219 4594 
L 3897 3297 
L 4872 3297 
L 4872 2816 
L 3775 2816 
L 3519 1772 
L 4513 1772 
L 4513 1294 
L 3397 1294 
L 3072 0 
L 2572 0 
L 2894 1294 
L 1978 1294 
L 1656 0 
L 1153 0 
L 1478 1294 
L 494 1294 
L 494 1772 
L 1594 1772 
L 1856 2816 
L 850 2816 
L 850 3297 
L 1978 3297 
L 2297 4594 
L 2803 4594 
z
" id="DejaVuSans-23" transform="scale(0.015625)"/>
       <path d="M 544 1381 
L 544 3500 
L 1119 3500 
L 1119 1403 
Q 1119 906 1312 657 
Q 1506 409 1894 409 
Q 2359 409 2629 706 
Q 2900 1003 2900 1516 
L 2900 3500 
L 3475 3500 
L 3475 0 
L 2900 0 
L 2900 538 
Q 2691 219 2414 64 
Q 2138 -91 1772 -91 
Q 1169 -91 856 284 
Q 544 659 544 1381 
z
M 1991 3584 
L 1991 3584 
z
" id="DejaVuSans-75" transform="scale(0.015625)"/>
       <path d="M 2834 3397 
L 2834 2853 
Q 2591 2978 2328 3040 
Q 2066 3103 1784 3103 
Q 1356 3103 1142 2972 
Q 928 2841 928 2578 
Q 928 2378 1081 2264 
Q 1234 2150 1697 2047 
L 1894 2003 
Q 2506 1872 2764 1633 
Q 3022 1394 3022 966 
Q 3022 478 2636 193 
Q 2250 -91 1575 -91 
Q 1294 -91 989 -36 
Q 684 19 347 128 
L 347 722 
Q 666 556 975 473 
Q 1284 391 1588 391 
Q 1994 391 2212 530 
Q 2431 669 2431 922 
Q 2431 1156 2273 1281 
Q 2116 1406 1581 1522 
L 1381 1569 
Q 847 1681 609 1914 
Q 372 2147 372 2553 
Q 372 3047 722 3315 
Q 1072 3584 1716 3584 
Q 2034 3584 2315 3537 
Q 2597 3491 2834 3397 
z
" id="DejaVuSans-73" transform="scale(0.015625)"/>
      </defs>
      <use xlink:href="#DejaVuSans-23"/>
      <use x="83.789062" xlink:href="#DejaVuSans-75"/>
      <use x="147.167969" xlink:href="#DejaVuSans-73"/>
      <use x="199.267578" xlink:href="#DejaVuSans-65"/>
      <use x="260.791016" xlink:href="#DejaVuSans-72"/>
      <use x="301.904297" xlink:href="#DejaVuSans-73"/>
     </g>
    </g>
   </g>
   <g id="line2d_16">
    <path clip-path="url(#pb71e9abc71)" d="M 69.218182 225.320642 
L 72.292562 225.320642 
L 75.366942 225.320642 
L 78.441322 225.320642 
L 81.515702 225.320642 
L 84.590083 225.320642 
L 87.664463 225.320642 
L 90.738843 225.320642 
L 93.813223 225.320642 
L 96.887603 225.320642 
L 99.961983 225.320642 
L 103.036364 225.320642 
L 106.110744 225.320642 
L 109.185124 225.320642 
L 112.259504 238.757219 
L 115.333884 225.320642 
L 118.408264 48.319572 
L 121.482645 225.320642 
L 124.557025 48.836364 
L 127.631405 225.320642 
L 130.705785 225.320642 
L 133.780165 225.320642 
L 136.854545 240.824385 
L 139.928926 240.307594 
L 143.003306 225.320642 
L 146.077686 240.049198 
L 149.152066 225.320642 
L 152.226446 225.320642 
L 155.300826 225.320642 
L 158.375207 225.320642 
L 161.449587 240.824385 
L 164.523967 225.320642 
L 167.598347 45.735615 
L 170.672727 225.320642 
L 173.747107 225.320642 
L 176.821488 225.320642 
L 179.895868 225.320642 
L 182.970248 225.320642 
L 186.044628 225.320642 
L 189.119008 225.320642 
L 192.193388 225.320642 
L 195.267769 225.320642 
L 198.342149 225.320642 
L 201.416529 225.320642 
L 204.490909 225.320642 
L 207.565289 225.320642 
L 210.639669 225.320642 
L 213.71405 225.320642 
L 216.78843 225.320642 
L 219.86281 225.320642 
L 222.93719 225.320642 
L 226.01157 225.320642 
L 229.08595 225.320642 
L 232.160331 225.320642 
L 235.234711 225.579037 
L 238.309091 225.579037 
L 241.383471 225.320642 
L 244.457851 225.579037 
L 247.532231 225.320642 
L 250.606612 225.579037 
L 253.680992 225.320642 
L 256.755372 225.320642 
L 259.829752 225.320642 
L 262.904132 225.579037 
L 265.978512 225.579037 
L 269.052893 225.579037 
L 272.127273 225.579037 
L 275.201653 225.579037 
L 278.276033 225.579037 
L 281.350413 225.579037 
L 284.424793 225.579037 
L 287.499174 225.579037 
L 290.573554 225.579037 
L 293.647934 225.579037 
L 296.722314 225.579037 
L 299.796694 225.579037 
L 302.871074 225.579037 
L 305.945455 225.320642 
L 309.019835 196.638717 
L 312.094215 195.088342 
L 315.168595 194.313155 
L 318.242975 192.762781 
L 321.317355 192.504385 
L 324.391736 190.954011 
L 327.466116 191.212406 
L 330.540496 191.212406 
L 333.614876 191.729198 
L 336.689256 177.517433 
L 339.763636 188.886845 
L 342.838017 189.920428 
L 345.912397 181.651765 
L 348.986777 165.372834 
L 352.061157 210.850481 
L 355.135537 162.272086 
L 358.209917 160.721711 
L 361.284298 215.501604 
L 364.358678 176.225455 
L 367.433058 175.708663 
L 370.507438 175.450267 
L 373.581818 176.225455 
" style="fill:none;stroke:#1f77b4;stroke-linecap:square;stroke-width:1.5;"/>
   </g>
   <g id="line2d_17">
    <path clip-path="url(#pb71e9abc71)" d="M 69.218182 44.443636 
L 72.292562 44.443636 
L 75.366942 44.443636 
L 78.441322 44.443636 
L 81.515702 44.443636 
L 84.590083 44.443636 
L 87.664463 44.443636 
L 90.738843 44.443636 
L 93.813223 44.443636 
L 96.887603 44.443636 
L 99.961983 44.443636 
L 103.036364 44.443636 
L 106.110744 44.443636 
L 109.185124 44.443636 
L 112.259504 48.836364 
L 115.333884 44.443636 
L 118.408264 239.015615 
L 121.482645 44.443636 
L 124.557025 239.274011 
L 127.631405 44.443636 
L 130.705785 44.443636 
L 133.780165 44.443636 
L 136.854545 46.252406 
L 139.928926 46.252406 
L 143.003306 44.443636 
L 146.077686 45.218824 
L 149.152066 44.443636 
L 152.226446 44.443636 
L 155.300826 44.443636 
L 158.375207 44.443636 
L 161.449587 45.218824 
L 164.523967 44.702032 
L 167.598347 242.116364 
L 170.672727 44.443636 
L 173.747107 44.702032 
L 176.821488 44.702032 
L 179.895868 44.702032 
L 182.970248 44.443636 
L 186.044628 44.443636 
L 189.119008 44.443636 
L 192.193388 44.443636 
L 195.267769 44.443636 
L 198.342149 44.443636 
L 201.416529 44.443636 
L 204.490909 44.443636 
L 207.565289 44.960428 
L 210.639669 44.443636 
L 213.71405 44.702032 
L 216.78843 44.702032 
L 219.86281 44.702032 
L 222.93719 44.443636 
L 226.01157 44.443636 
L 229.08595 44.960428 
L 232.160331 44.960428 
L 235.234711 44.702032 
L 238.309091 44.702032 
L 241.383471 44.443636 
L 244.457851 44.960428 
L 247.532231 44.443636 
L 250.606612 44.702032 
L 253.680992 44.702032 
L 256.755372 44.960428 
L 259.829752 44.443636 
L 262.904132 45.218824 
L 265.978512 45.218824 
L 269.052893 45.218824 
L 272.127273 45.218824 
L 275.201653 46.510802 
L 278.276033 45.218824 
L 281.350413 47.027594 
L 284.424793 47.027594 
L 287.499174 45.477219 
L 290.573554 45.477219 
L 293.647934 45.477219 
L 296.722314 45.218824 
L 299.796694 45.477219 
L 302.871074 45.477219 
L 305.945455 45.735615 
L 309.019835 73.125561 
L 312.094215 74.675936 
L 315.168595 75.451123 
L 318.242975 77.001497 
L 321.317355 77.259893 
L 324.391736 78.810267 
L 327.466116 78.551872 
L 330.540496 78.551872 
L 333.614876 78.03508 
L 336.689256 92.246845 
L 339.763636 80.877433 
L 342.838017 79.84385 
L 345.912397 88.112513 
L 348.986777 104.391444 
L 352.061157 58.913797 
L 355.135537 107.492193 
L 358.209917 109.042567 
L 361.284298 54.262674 
L 364.358678 93.538824 
L 367.433058 94.055615 
L 370.507438 94.314011 
L 373.581818 93.538824 
" style="fill:none;stroke:#ff7f0e;stroke-linecap:square;stroke-width:1.5;"/>
   </g>
   <g id="line2d_18">
    <path clip-path="url(#pb71e9abc71)" d="M 69.218182 225.320642 
L 72.292562 225.320642 
L 75.366942 225.320642 
L 78.441322 225.320642 
L 81.515702 225.320642 
L 84.590083 225.320642 
L 87.664463 225.320642 
L 90.738843 225.320642 
L 93.813223 225.320642 
L 96.887603 225.320642 
L 99.961983 225.320642 
L 103.036364 225.320642 
L 106.110744 225.320642 
L 109.185124 225.320642 
L 112.259504 207.491337 
L 115.333884 225.320642 
L 118.408264 207.749733 
L 121.482645 225.320642 
L 124.557025 206.974545 
L 127.631405 225.320642 
L 130.705785 225.320642 
L 133.780165 225.320642 
L 136.854545 208.008128 
L 139.928926 208.52492 
L 143.003306 225.320642 
L 146.077686 209.816898 
L 149.152066 225.320642 
L 152.226446 225.320642 
L 155.300826 225.320642 
L 158.375207 225.320642 
L 161.449587 209.041711 
L 164.523967 225.062246 
L 167.598347 207.232941 
L 170.672727 225.320642 
L 173.747107 225.062246 
L 176.821488 225.062246 
L 179.895868 225.062246 
L 182.970248 225.320642 
L 186.044628 225.320642 
L 189.119008 225.320642 
L 192.193388 225.320642 
L 195.267769 225.320642 
L 198.342149 225.320642 
L 201.416529 225.320642 
L 204.490909 225.320642 
L 207.565289 224.80385 
L 210.639669 225.320642 
L 213.71405 225.062246 
L 216.78843 225.062246 
L 219.86281 225.062246 
L 222.93719 225.320642 
L 226.01157 225.320642 
L 229.08595 224.80385 
L 232.160331 224.80385 
L 235.234711 224.80385 
L 238.309091 224.80385 
L 241.383471 225.320642 
L 244.457851 224.545455 
L 247.532231 225.320642 
L 250.606612 224.80385 
L 253.680992 225.062246 
L 256.755372 224.80385 
L 259.829752 225.320642 
L 262.904132 224.287059 
L 265.978512 224.287059 
L 269.052893 224.287059 
L 272.127273 224.287059 
L 275.201653 222.99508 
L 278.276033 224.287059 
L 281.350413 222.478289 
L 284.424793 222.478289 
L 287.499174 224.028663 
L 290.573554 224.028663 
L 293.647934 224.028663 
L 296.722314 224.287059 
L 299.796694 224.028663 
L 302.871074 224.028663 
L 305.945455 224.028663 
L 309.019835 225.320642 
L 312.094215 225.320642 
L 315.168595 225.320642 
L 318.242975 225.320642 
L 321.317355 225.320642 
L 324.391736 225.320642 
L 327.466116 225.320642 
L 330.540496 225.320642 
L 333.614876 225.320642 
L 336.689256 225.320642 
L 339.763636 225.320642 
L 342.838017 225.320642 
L 345.912397 225.320642 
L 348.986777 225.320642 
L 352.061157 225.320642 
L 355.135537 225.320642 
L 358.209917 225.320642 
L 361.284298 225.320642 
L 364.358678 225.320642 
L 367.433058 225.320642 
L 370.507438 225.320642 
L 373.581818 225.320642 
" style="fill:none;stroke:#2ca02c;stroke-linecap:square;stroke-width:1.5;"/>
   </g>
   <g id="patch_3">
    <path d="M 54 252 
L 54 34.56 
" style="fill:none;stroke:#000000;stroke-linecap:square;stroke-linejoin:miter;stroke-width:0.8;"/>
   </g>
   <g id="patch_4">
    <path d="M 388.8 252 
L 388.8 34.56 
" style="fill:none;stroke:#000000;stroke-linecap:square;stroke-linejoin:miter;stroke-width:0.8;"/>
   </g>
   <g id="patch_5">
    <path d="M 54 252 
L 388.8 252 
" style="fill:none;stroke:#000000;stroke-linecap:square;stroke-linejoin:miter;stroke-width:0.8;"/>
   </g>
   <g id="patch_6">
    <path d="M 54 34.56 
L 388.8 34.56 
" style="fill:none;stroke:#000000;stroke-linecap:square;stroke-linejoin:miter;stroke-width:0.8;"/>
   </g>
   <g id="text_18">
    <!-- Fraction of Users in each cluster over the simulation -->
    <g transform="translate(64.761563 28.56)scale(0.12 -0.12)">
     <defs>
      <path d="M 628 4666 
L 3309 4666 
L 3309 4134 
L 1259 4134 
L 1259 2759 
L 3109 2759 
L 3109 2228 
L 1259 2228 
L 1259 0 
L 628 0 
L 628 4666 
z
" id="DejaVuSans-46" transform="scale(0.015625)"/>
      <path d="M 3122 3366 
L 3122 2828 
Q 2878 2963 2633 3030 
Q 2388 3097 2138 3097 
Q 1578 3097 1268 2742 
Q 959 2388 959 1747 
Q 959 1106 1268 751 
Q 1578 397 2138 397 
Q 2388 397 2633 464 
Q 2878 531 3122 666 
L 3122 134 
Q 2881 22 2623 -34 
Q 2366 -91 2075 -91 
Q 1284 -91 818 406 
Q 353 903 353 1747 
Q 353 2603 823 3093 
Q 1294 3584 2113 3584 
Q 2378 3584 2631 3529 
Q 2884 3475 3122 3366 
z
" id="DejaVuSans-63" transform="scale(0.015625)"/>
      <path id="DejaVuSans-20" transform="scale(0.015625)"/>
      <path d="M 2375 4863 
L 2375 4384 
L 1825 4384 
Q 1516 4384 1395 4259 
Q 1275 4134 1275 3809 
L 1275 3500 
L 2222 3500 
L 2222 3053 
L 1275 3053 
L 1275 0 
L 697 0 
L 697 3053 
L 147 3053 
L 147 3500 
L 697 3500 
L 697 3744 
Q 697 4328 969 4595 
Q 1241 4863 1831 4863 
L 2375 4863 
z
" id="DejaVuSans-66" transform="scale(0.015625)"/>
      <path d="M 556 4666 
L 1191 4666 
L 1191 1831 
Q 1191 1081 1462 751 
Q 1734 422 2344 422 
Q 2950 422 3222 751 
Q 3494 1081 3494 1831 
L 3494 4666 
L 4128 4666 
L 4128 1753 
Q 4128 841 3676 375 
Q 3225 -91 2344 -91 
Q 1459 -91 1007 375 
Q 556 841 556 1753 
L 556 4666 
z
" id="DejaVuSans-55" transform="scale(0.015625)"/>
      <path d="M 3513 2113 
L 3513 0 
L 2938 0 
L 2938 2094 
Q 2938 2591 2744 2837 
Q 2550 3084 2163 3084 
Q 1697 3084 1428 2787 
Q 1159 2491 1159 1978 
L 1159 0 
L 581 0 
L 581 4863 
L 1159 4863 
L 1159 2956 
Q 1366 3272 1645 3428 
Q 1925 3584 2291 3584 
Q 2894 3584 3203 3211 
Q 3513 2838 3513 2113 
z
" id="DejaVuSans-68" transform="scale(0.015625)"/>
      <path d="M 603 4863 
L 1178 4863 
L 1178 0 
L 603 0 
L 603 4863 
z
" id="DejaVuSans-6c" transform="scale(0.015625)"/>
      <path d="M 191 3500 
L 800 3500 
L 1894 563 
L 2988 3500 
L 3597 3500 
L 2284 0 
L 1503 0 
L 191 3500 
z
" id="DejaVuSans-76" transform="scale(0.015625)"/>
      <path d="M 3328 2828 
Q 3544 3216 3844 3400 
Q 4144 3584 4550 3584 
Q 5097 3584 5394 3201 
Q 5691 2819 5691 2113 
L 5691 0 
L 5113 0 
L 5113 2094 
Q 5113 2597 4934 2840 
Q 4756 3084 4391 3084 
Q 3944 3084 3684 2787 
Q 3425 2491 3425 1978 
L 3425 0 
L 2847 0 
L 2847 2094 
Q 2847 2600 2669 2842 
Q 2491 3084 2119 3084 
Q 1678 3084 1418 2786 
Q 1159 2488 1159 1978 
L 1159 0 
L 581 0 
L 581 3500 
L 1159 3500 
L 1159 2956 
Q 1356 3278 1631 3431 
Q 1906 3584 2284 3584 
Q 2666 3584 2933 3390 
Q 3200 3197 3328 2828 
z
" id="DejaVuSans-6d" transform="scale(0.015625)"/>
     </defs>
     <use xlink:href="#DejaVuSans-46"/>
     <use x="50.269531" xlink:href="#DejaVuSans-72"/>
     <use x="91.382812" xlink:href="#DejaVuSans-61"/>
     <use x="152.662109" xlink:href="#DejaVuSans-63"/>
     <use x="207.642578" xlink:href="#DejaVuSans-74"/>
     <use x="246.851562" xlink:href="#DejaVuSans-69"/>
     <use x="274.634766" xlink:href="#DejaVuSans-6f"/>
     <use x="335.816406" xlink:href="#DejaVuSans-6e"/>
     <use x="399.195312" xlink:href="#DejaVuSans-20"/>
     <use x="430.982422" xlink:href="#DejaVuSans-6f"/>
     <use x="492.164062" xlink:href="#DejaVuSans-66"/>
     <use x="527.369141" xlink:href="#DejaVuSans-20"/>
     <use x="559.15625" xlink:href="#DejaVuSans-55"/>
     <use x="632.349609" xlink:href="#DejaVuSans-73"/>
     <use x="684.449219" xlink:href="#DejaVuSans-65"/>
     <use x="745.972656" xlink:href="#DejaVuSans-72"/>
     <use x="787.085938" xlink:href="#DejaVuSans-73"/>
     <use x="839.185547" xlink:href="#DejaVuSans-20"/>
     <use x="870.972656" xlink:href="#DejaVuSans-69"/>
     <use x="898.755859" xlink:href="#DejaVuSans-6e"/>
     <use x="962.134766" xlink:href="#DejaVuSans-20"/>
     <use x="993.921875" xlink:href="#DejaVuSans-65"/>
     <use x="1055.445312" xlink:href="#DejaVuSans-61"/>
     <use x="1116.724609" xlink:href="#DejaVuSans-63"/>
     <use x="1171.705078" xlink:href="#DejaVuSans-68"/>
     <use x="1235.083984" xlink:href="#DejaVuSans-20"/>
     <use x="1266.871094" xlink:href="#DejaVuSans-63"/>
     <use x="1321.851562" xlink:href="#DejaVuSans-6c"/>
     <use x="1349.634766" xlink:href="#DejaVuSans-75"/>
     <use x="1413.013672" xlink:href="#DejaVuSans-73"/>
     <use x="1465.113281" xlink:href="#DejaVuSans-74"/>
     <use x="1504.322266" xlink:href="#DejaVuSans-65"/>
     <use x="1565.845703" xlink:href="#DejaVuSans-72"/>
     <use x="1606.958984" xlink:href="#DejaVuSans-20"/>
     <use x="1638.746094" xlink:href="#DejaVuSans-6f"/>
     <use x="1699.927734" xlink:href="#DejaVuSans-76"/>
     <use x="1759.107422" xlink:href="#DejaVuSans-65"/>
     <use x="1820.630859" xlink:href="#DejaVuSans-72"/>
     <use x="1861.744141" xlink:href="#DejaVuSans-20"/>
     <use x="1893.53125" xlink:href="#DejaVuSans-74"/>
     <use x="1932.740234" xlink:href="#DejaVuSans-68"/>
     <use x="1996.119141" xlink:href="#DejaVuSans-65"/>
     <use x="2057.642578" xlink:href="#DejaVuSans-20"/>
     <use x="2089.429688" xlink:href="#DejaVuSans-73"/>
     <use x="2141.529297" xlink:href="#DejaVuSans-69"/>
     <use x="2169.3125" xlink:href="#DejaVuSans-6d"/>
     <use x="2266.724609" xlink:href="#DejaVuSans-75"/>
     <use x="2330.103516" xlink:href="#DejaVuSans-6c"/>
     <use x="2357.886719" xlink:href="#DejaVuSans-61"/>
     <use x="2419.166016" xlink:href="#DejaVuSans-74"/>
     <use x="2458.375" xlink:href="#DejaVuSans-69"/>
     <use x="2486.158203" xlink:href="#DejaVuSans-6f"/>
     <use x="2547.339844" xlink:href="#DejaVuSans-6e"/>
    </g>
   </g>
   <g id="legend_1">
    <g id="patch_7">
     <path d="M 61 166.797188 
L 102.970313 166.797188 
Q 104.970313 166.797188 104.970313 164.797188 
L 104.970313 121.762812 
Q 104.970313 119.762812 102.970313 119.762812 
L 61 119.762812 
Q 59 119.762812 59 121.762812 
L 59 164.797188 
Q 59 166.797188 61 166.797188 
z
" style="fill:#ffffff;opacity:0.8;stroke:#cccccc;stroke-linejoin:miter;"/>
    </g>
    <g id="line2d_19">
     <path d="M 63 127.86125 
L 83 127.86125 
" style="fill:none;stroke:#1f77b4;stroke-linecap:square;stroke-width:1.5;"/>
    </g>
    <g id="line2d_20"/>
    <g id="text_19">
     <!-- -1 -->
     <g transform="translate(91 131.36125)scale(0.1 -0.1)">
      <defs>
       <path d="M 313 2009 
L 1997 2009 
L 1997 1497 
L 313 1497 
L 313 2009 
z
" id="DejaVuSans-2d" transform="scale(0.015625)"/>
      </defs>
      <use xlink:href="#DejaVuSans-2d"/>
      <use x="36.083984" xlink:href="#DejaVuSans-31"/>
     </g>
    </g>
    <g id="line2d_21">
     <path d="M 63 142.539375 
L 83 142.539375 
" style="fill:none;stroke:#ff7f0e;stroke-linecap:square;stroke-width:1.5;"/>
    </g>
    <g id="line2d_22"/>
    <g id="text_20">
     <!-- 0 -->
     <g transform="translate(91 146.039375)scale(0.1 -0.1)">
      <use xlink:href="#DejaVuSans-30"/>
     </g>
    </g>
    <g id="line2d_23">
     <path d="M 63 157.2175 
L 83 157.2175 
" style="fill:none;stroke:#2ca02c;stroke-linecap:square;stroke-width:1.5;"/>
    </g>
    <g id="line2d_24"/>
    <g id="text_21">
     <!-- 1 -->
     <g transform="translate(91 160.7175)scale(0.1 -0.1)">
      <use xlink:href="#DejaVuSans-31"/>
     </g>
    </g>
   </g>
  </g>
 </g>
 <defs>
  <clipPath id="pb71e9abc71">
   <rect height="217.44" width="334.8" x="54" y="34.56"/>
  </clipPath>
 </defs>
</svg>
